<mxfile host="65bd71144e">
    <diagram id="ps7OQjv46sEzhSa04u_u" name="PCP">
        <mxGraphModel dx="1460" dy="1422" grid="0" gridSize="10" guides="1" tooltips="1" connect="1" arrows="1" fold="1" page="1" pageScale="1" pageWidth="827" pageHeight="1169" math="0" shadow="0">
            <root>
                <mxCell id="0"/>
                <mxCell id="1" parent="0"/>
                <mxCell id="6" value="Planta" style="swimlane;fontStyle=1;align=center;verticalAlign=middle;childLayout=stackLayout;horizontal=1;startSize=29;horizontalStack=0;resizeParent=1;resizeParentMax=0;resizeLast=0;collapsible=0;marginBottom=0;html=1;fillColor=#647687;strokeColor=#314354;strokeWidth=2;fontColor=#FFE6CC;" parent="1" vertex="1">
                    <mxGeometry x="5.829999999999998" y="150" width="140" height="110" as="geometry"/>
                </mxCell>
                <mxCell id="8" value="&lt;p style=&quot;font-size: 13px&quot;&gt;&lt;span data-lucid-type=&quot;application/vnd.lucid.text&quot; data-lucid-content=&quot;{&amp;quot;t&amp;quot;:&amp;quot;codigo: varchar(30)\ndescricao: varchar(60)\nestabelecimento : uuid&amp;quot;,&amp;quot;m&amp;quot;:[{&amp;quot;s&amp;quot;:0,&amp;quot;n&amp;quot;:&amp;quot;s&amp;quot;,&amp;quot;v&amp;quot;:22.44444444444444,&amp;quot;e&amp;quot;:65},{&amp;quot;s&amp;quot;:0,&amp;quot;n&amp;quot;:&amp;quot;c&amp;quot;,&amp;quot;v&amp;quot;:&amp;quot;000000ff&amp;quot;,&amp;quot;e&amp;quot;:65}]}&quot;&gt;&lt;span style=&quot;&quot;&gt;codigo: varchar(30)&lt;br&gt;&lt;/span&gt;&lt;span style=&quot;&quot;&gt;descricao: varchar(60)&lt;br&gt;&lt;/span&gt;&lt;span style=&quot;&quot;&gt;estabelecimento : uuid&lt;/span&gt;&lt;/span&gt;&lt;br&gt;&lt;/p&gt;" style="text;html=1;align=left;verticalAlign=middle;spacingLeft=4;spacingRight=4;overflow=hidden;rotatable=0;points=[[0,0.5],[1,0.5]];portConstraint=eastwest;fillColor=#647687;strokeColor=#314354;strokeWidth=2;fontColor=#FFE6CC;" parent="6" vertex="1">
                    <mxGeometry y="29" width="140" height="81" as="geometry"/>
                </mxCell>
                <mxCell id="11" value="Setup" style="swimlane;fontStyle=1;align=center;verticalAlign=middle;childLayout=stackLayout;horizontal=1;startSize=29;horizontalStack=0;resizeParent=1;resizeParentMax=0;resizeLast=0;collapsible=0;marginBottom=0;html=1;fillColor=#647687;strokeColor=#314354;strokeWidth=2;fontColor=#FFE6CC;" parent="1" vertex="1">
                    <mxGeometry x="370" y="140" width="150" height="90" as="geometry"/>
                </mxCell>
                <mxCell id="12" value="&lt;span data-lucid-type=&quot;application/vnd.lucid.text&quot; data-lucid-content=&quot;{&amp;quot;t&amp;quot;:&amp;quot;nodigo: varchar(30\ndescricao: varchar(60)\n&amp;quot;,&amp;quot;m&amp;quot;:[{&amp;quot;s&amp;quot;:0,&amp;quot;n&amp;quot;:&amp;quot;s&amp;quot;,&amp;quot;v&amp;quot;:22.44444444444444,&amp;quot;e&amp;quot;:42},{&amp;quot;s&amp;quot;:0,&amp;quot;n&amp;quot;:&amp;quot;c&amp;quot;,&amp;quot;v&amp;quot;:&amp;quot;000000ff&amp;quot;,&amp;quot;e&amp;quot;:42}]}&quot; style=&quot;font-size: 13px&quot;&gt;&lt;span style=&quot;&quot;&gt;nodigo: varchar(30&lt;br&gt;&lt;/span&gt;&lt;span style=&quot;&quot;&gt;descricao: varchar(60)&lt;br&gt;&lt;/span&gt;&lt;/span&gt;" style="text;html=1;align=left;verticalAlign=middle;spacingLeft=4;spacingRight=4;overflow=hidden;rotatable=0;points=[[0,0.5],[1,0.5]];portConstraint=eastwest;fillColor=#647687;strokeColor=#314354;strokeWidth=2;fontColor=#FFE6CC;" parent="11" vertex="1">
                    <mxGeometry y="29" width="150" height="61" as="geometry"/>
                </mxCell>
                <mxCell id="13" value="Disponibilidade" style="swimlane;fontStyle=1;align=center;verticalAlign=middle;childLayout=stackLayout;horizontal=1;startSize=29;horizontalStack=0;resizeParent=1;resizeParentMax=0;resizeLast=0;collapsible=0;marginBottom=0;html=1;fillColor=#647687;strokeColor=#314354;strokeWidth=2;fontColor=#FFE6CC;" parent="1" vertex="1">
                    <mxGeometry x="290" y="540" width="170" height="140" as="geometry"/>
                </mxCell>
                <mxCell id="14" value="&lt;span data-lucid-type=&quot;application/vnd.lucid.text&quot; data-lucid-content=&quot;{&amp;quot;t&amp;quot;:&amp;quot;data_hora_inicio : datetime\ndata_hora_fim: datetime\nmotivo : varchar(100)\ntipo: TipoInterrupcao&amp;quot;,&amp;quot;m&amp;quot;:[{&amp;quot;s&amp;quot;:0,&amp;quot;n&amp;quot;:&amp;quot;s&amp;quot;,&amp;quot;v&amp;quot;:22.44444444444444,&amp;quot;e&amp;quot;:95},{&amp;quot;s&amp;quot;:0,&amp;quot;n&amp;quot;:&amp;quot;c&amp;quot;,&amp;quot;v&amp;quot;:&amp;quot;000000ff&amp;quot;,&amp;quot;e&amp;quot;:95}]}&quot; style=&quot;font-size: 13px&quot;&gt;&lt;span style=&quot;&quot;&gt;data_hora_inicio : datetime&lt;br&gt;&lt;/span&gt;&lt;span style=&quot;&quot;&gt;data_hora_fim: datetime&lt;br&gt;&lt;/span&gt;&lt;span style=&quot;&quot;&gt;motivo : varchar(100)&lt;br&gt;&lt;/span&gt;&lt;span style=&quot;&quot;&gt;tipo: TipoInterrupcao&lt;/span&gt;&lt;/span&gt;" style="text;html=1;align=left;verticalAlign=middle;spacingLeft=4;spacingRight=4;overflow=hidden;rotatable=0;points=[[0,0.5],[1,0.5]];portConstraint=eastwest;fillColor=#647687;strokeColor=#314354;strokeWidth=2;fontColor=#FFE6CC;" parent="13" vertex="1">
                    <mxGeometry y="29" width="170" height="111" as="geometry"/>
                </mxCell>
                <mxCell id="15" value="Centro de Trabalho" style="swimlane;fontStyle=1;align=center;verticalAlign=middle;childLayout=stackLayout;horizontal=1;startSize=29;horizontalStack=0;resizeParent=1;resizeParentMax=0;resizeLast=0;collapsible=0;marginBottom=0;html=1;fillColor=#647687;strokeColor=#314354;strokeWidth=2;fontColor=#FFE6CC;" parent="1" vertex="1">
                    <mxGeometry x="-210" y="315" width="170" height="110" as="geometry"/>
                </mxCell>
                <mxCell id="16" value="&lt;span data-lucid-type=&quot;application/vnd.lucid.text&quot; data-lucid-content=&quot;{&amp;quot;t&amp;quot;:&amp;quot;codigo: varchar(30)\ndescricao: varchar(60)\nresponsavel : varchar(60)&amp;quot;,&amp;quot;m&amp;quot;:[{&amp;quot;s&amp;quot;:0,&amp;quot;n&amp;quot;:&amp;quot;s&amp;quot;,&amp;quot;v&amp;quot;:22.44444444444444,&amp;quot;e&amp;quot;:68},{&amp;quot;s&amp;quot;:0,&amp;quot;n&amp;quot;:&amp;quot;c&amp;quot;,&amp;quot;v&amp;quot;:&amp;quot;000000ff&amp;quot;,&amp;quot;e&amp;quot;:68}]}&quot; style=&quot;font-size: 13px&quot;&gt;&lt;span style=&quot;&quot;&gt;codigo: varchar(30)&lt;br&gt;&lt;/span&gt;&lt;span style=&quot;&quot;&gt;descricao: varchar(60)&lt;br&gt;&lt;/span&gt;&lt;span style=&quot;&quot;&gt;responsavel : varchar(60)&lt;/span&gt;&lt;/span&gt;" style="text;html=1;align=left;verticalAlign=middle;spacingLeft=4;spacingRight=4;overflow=hidden;rotatable=0;points=[[0,0.5],[1,0.5]];portConstraint=eastwest;fillColor=#647687;strokeColor=#314354;strokeWidth=2;fontColor=#FFE6CC;" parent="15" vertex="1">
                    <mxGeometry y="29" width="170" height="81" as="geometry"/>
                </mxCell>
                <mxCell id="17" value="Horários" style="swimlane;fontStyle=1;align=center;verticalAlign=middle;childLayout=stackLayout;horizontal=1;startSize=29;horizontalStack=0;resizeParent=1;resizeParentMax=0;resizeLast=0;collapsible=0;marginBottom=0;html=1;fillColor=#647687;strokeColor=#314354;strokeWidth=2;fontColor=#FFE6CC;" parent="1" vertex="1">
                    <mxGeometry x="-25" y="830" width="186" height="92" as="geometry"/>
                </mxCell>
                <mxCell id="18" value="&lt;span data-lucid-type=&quot;application/vnd.lucid.text&quot; data-lucid-content=&quot;{&amp;#34;t&amp;#34;:&amp;#34;hora: datetime\ntipo: TipoHorario&amp;#34;,&amp;#34;m&amp;#34;:[{&amp;#34;s&amp;#34;:0,&amp;#34;n&amp;#34;:&amp;#34;s&amp;#34;,&amp;#34;v&amp;#34;:22.44444444444444,&amp;#34;e&amp;#34;:32},{&amp;#34;s&amp;#34;:0,&amp;#34;n&amp;#34;:&amp;#34;c&amp;#34;,&amp;#34;v&amp;#34;:&amp;#34;000000ff&amp;#34;,&amp;#34;e&amp;#34;:32}]}&quot; style=&quot;font-size: 13px&quot;&gt;&lt;span&gt;hora: datetime&lt;br&gt;&lt;/span&gt;dia_semana: TipoDiaSemana&lt;span&gt;&lt;br&gt;descricao&lt;br&gt;&lt;/span&gt;&lt;/span&gt;" style="text;html=1;align=left;verticalAlign=middle;spacingLeft=4;spacingRight=4;overflow=hidden;rotatable=0;points=[[0,0.5],[1,0.5]];portConstraint=eastwest;fillColor=#647687;strokeColor=#314354;strokeWidth=2;fontColor=#FFE6CC;" parent="17" vertex="1">
                    <mxGeometry y="29" width="186" height="63" as="geometry"/>
                </mxCell>
                <mxCell id="19" value="Recurso Primário" style="swimlane;fontStyle=1;align=center;verticalAlign=middle;childLayout=stackLayout;horizontal=1;startSize=29;horizontalStack=0;resizeParent=1;resizeParentMax=0;resizeLast=0;collapsible=0;marginBottom=0;html=1;fillColor=#647687;strokeColor=#314354;strokeWidth=2;fontColor=#FFE6CC;" parent="1" vertex="1">
                    <mxGeometry x="220" y="310" width="180" height="150" as="geometry"/>
                </mxCell>
                <mxCell id="20" value="&lt;span data-lucid-type=&quot;application/vnd.lucid.text&quot; data-lucid-content=&quot;{&amp;quot;t&amp;quot;:&amp;quot;codigo :  varchar(30)\ndescricao: varchar(60)\ntipo : TipoRecurso\ncusto_hora : currency\ndisponivel : boolean&amp;quot;,&amp;quot;m&amp;quot;:[{&amp;quot;s&amp;quot;:0,&amp;quot;n&amp;quot;:&amp;quot;c&amp;quot;,&amp;quot;v&amp;quot;:&amp;quot;000000ff&amp;quot;,&amp;quot;e&amp;quot;:77},{&amp;quot;s&amp;quot;:0,&amp;quot;n&amp;quot;:&amp;quot;s&amp;quot;,&amp;quot;v&amp;quot;:22.44444444444444,&amp;quot;e&amp;quot;:77},{&amp;quot;s&amp;quot;:77,&amp;quot;n&amp;quot;:&amp;quot;s&amp;quot;,&amp;quot;v&amp;quot;:20.444444444444443,&amp;quot;e&amp;quot;:106},{&amp;quot;s&amp;quot;:77,&amp;quot;n&amp;quot;:&amp;quot;c&amp;quot;,&amp;quot;v&amp;quot;:&amp;quot;#000000ff&amp;quot;,&amp;quot;e&amp;quot;:106}]}&quot; style=&quot;font-size: 13px&quot;&gt;&lt;span style=&quot;&quot;&gt;codigo :  varchar(30)&lt;br&gt;&lt;/span&gt;&lt;span style=&quot;&quot;&gt;descricao: varchar(60)&lt;br&gt;&lt;/span&gt;&lt;span style=&quot;&quot;&gt;tipo : TipoRecurso&lt;br&gt;&lt;/span&gt;&lt;span style=&quot;&quot;&gt;custo_hora : &lt;/span&gt;&lt;span style=&quot;&quot;&gt;currency&lt;br&gt;&lt;/span&gt;&lt;span style=&quot;&quot;&gt;disponivel : boolean&lt;/span&gt;&lt;/span&gt;" style="text;html=1;align=left;verticalAlign=middle;spacingLeft=4;spacingRight=4;overflow=hidden;rotatable=0;points=[[0,0.5],[1,0.5]];portConstraint=eastwest;fillColor=#647687;strokeColor=#314354;strokeWidth=2;fontColor=#FFE6CC;" parent="19" vertex="1">
                    <mxGeometry y="29" width="180" height="121" as="geometry"/>
                </mxCell>
                <mxCell id="21" value="Grupo de Recursos" style="swimlane;fontStyle=1;align=center;verticalAlign=middle;childLayout=stackLayout;horizontal=1;startSize=29;horizontalStack=0;resizeParent=1;resizeParentMax=0;resizeLast=0;collapsible=0;marginBottom=0;html=1;fillColor=#647687;strokeColor=#314354;strokeWidth=2;fontColor=#FFE6CC;" parent="1" vertex="1">
                    <mxGeometry x="570" y="550" width="160" height="90" as="geometry"/>
                </mxCell>
                <mxCell id="22" value="&lt;span data-lucid-type=&quot;application/vnd.lucid.text&quot; data-lucid-content=&quot;{&amp;quot;t&amp;quot;:&amp;quot;codigo : varchar(30)\ndescricao : varchar(60)\ntipo: TipoRecurso&amp;quot;,&amp;quot;m&amp;quot;:[{&amp;quot;s&amp;quot;:0,&amp;quot;n&amp;quot;:&amp;quot;s&amp;quot;,&amp;quot;v&amp;quot;:22.44444444444444,&amp;quot;e&amp;quot;:62},{&amp;quot;s&amp;quot;:0,&amp;quot;n&amp;quot;:&amp;quot;c&amp;quot;,&amp;quot;v&amp;quot;:&amp;quot;000000ff&amp;quot;,&amp;quot;e&amp;quot;:62}]}&quot; style=&quot;font-size: 13px&quot;&gt;&lt;span style=&quot;&quot;&gt;codigo : varchar(30)&lt;br&gt;&lt;/span&gt;&lt;span style=&quot;&quot;&gt;descricao : varchar(60)&lt;br&gt;&lt;/span&gt;&lt;span style=&quot;&quot;&gt;tipo: TipoRecurso&lt;/span&gt;&lt;/span&gt;" style="text;html=1;align=left;verticalAlign=middle;spacingLeft=4;spacingRight=4;overflow=hidden;rotatable=0;points=[[0,0.5],[1,0.5]];portConstraint=eastwest;fillColor=#647687;strokeColor=#314354;strokeWidth=2;fontColor=#FFE6CC;" parent="21" vertex="1">
                    <mxGeometry y="29" width="160" height="61" as="geometry"/>
                </mxCell>
                <mxCell id="23" value="Restrição Secundária" style="swimlane;fontStyle=1;align=center;verticalAlign=middle;childLayout=stackLayout;horizontal=1;startSize=29;horizontalStack=0;resizeParent=1;resizeParentMax=0;resizeLast=0;collapsible=0;marginBottom=0;html=1;fillColor=#647687;strokeColor=#314354;strokeWidth=2;fontColor=#FFE6CC;" parent="1" vertex="1">
                    <mxGeometry x="300" y="760" width="150" height="120" as="geometry"/>
                </mxCell>
                <mxCell id="24" value="&lt;span data-lucid-type=&quot;application/vnd.lucid.text&quot; data-lucid-content=&quot;{&amp;#34;t&amp;#34;:&amp;#34;codigo :  varchar(30)\ndescricao: varchar(60)\ntipo : TipoRestricao\ncusto_hora : currency\ncusto: double&amp;#34;,&amp;#34;m&amp;#34;:[{&amp;#34;s&amp;#34;:0,&amp;#34;n&amp;#34;:&amp;#34;c&amp;#34;,&amp;#34;v&amp;#34;:&amp;#34;000000ff&amp;#34;,&amp;#34;e&amp;#34;:79},{&amp;#34;s&amp;#34;:0,&amp;#34;n&amp;#34;:&amp;#34;s&amp;#34;,&amp;#34;v&amp;#34;:22.44444444444444,&amp;#34;e&amp;#34;:79},{&amp;#34;s&amp;#34;:79,&amp;#34;n&amp;#34;:&amp;#34;s&amp;#34;,&amp;#34;v&amp;#34;:20.444444444444443,&amp;#34;e&amp;#34;:101},{&amp;#34;s&amp;#34;:79,&amp;#34;n&amp;#34;:&amp;#34;c&amp;#34;,&amp;#34;v&amp;#34;:&amp;#34;#000000ff&amp;#34;,&amp;#34;e&amp;#34;:101}]}&quot; style=&quot;font-size: 13px&quot;&gt;&lt;span&gt;codigo :  varchar(30)&lt;br&gt;&lt;/span&gt;&lt;span&gt;descricao: varchar(60)&lt;br&gt;&lt;/span&gt;&lt;span&gt;tipo : TipoRestricao&lt;br&gt;&lt;/span&gt;&lt;span&gt;custo_hora : &lt;/span&gt;&lt;span&gt;currency&lt;/span&gt;&lt;br&gt;&lt;/span&gt;" style="text;html=1;align=left;verticalAlign=middle;spacingLeft=4;spacingRight=4;overflow=hidden;rotatable=0;points=[[0,0.5],[1,0.5]];portConstraint=eastwest;fillColor=#647687;strokeColor=#314354;strokeWidth=2;fontColor=#FFE6CC;" parent="23" vertex="1">
                    <mxGeometry y="29" width="150" height="91" as="geometry"/>
                </mxCell>
                <mxCell id="27" value="Operação" style="swimlane;fontStyle=1;align=center;verticalAlign=middle;childLayout=stackLayout;horizontal=1;startSize=29;horizontalStack=0;resizeParent=1;resizeParentMax=0;resizeLast=0;collapsible=0;marginBottom=0;html=1;fillColor=#647687;strokeColor=#314354;strokeWidth=2;fontColor=#FFE6CC;" parent="1" vertex="1">
                    <mxGeometry x="982" y="260" width="320" height="260" as="geometry"/>
                </mxCell>
                <mxCell id="28" value="&lt;font style=&quot;font-size: 13px&quot;&gt;&lt;span data-lucid-type=&quot;application/vnd.lucid.text&quot; data-lucid-content=&quot;{&amp;#34;t&amp;#34;:&amp;#34;código: varchar(30)\ndescricao: varchar(60)\nquantidade_minima_producao : double\ntempo_execucao : timestamp\ntaxa_execucao: double\ntamanho_minimo: double\ntamanho_maximo: double\ncapacidade_de_uso?: double\n\n\n\n&amp;#34;,&amp;#34;m&amp;#34;:[{&amp;#34;s&amp;#34;:0,&amp;#34;n&amp;#34;:&amp;#34;s&amp;#34;,&amp;#34;v&amp;#34;:22.44444444444444,&amp;#34;e&amp;#34;:204},{&amp;#34;s&amp;#34;:0,&amp;#34;n&amp;#34;:&amp;#34;c&amp;#34;,&amp;#34;v&amp;#34;:&amp;#34;000000ff&amp;#34;,&amp;#34;e&amp;#34;:204}]}&quot;&gt;código: varchar(30)&lt;br&gt;descricao: varchar(60)&lt;br&gt;&lt;/span&gt;tempo_padrao_setup: double&lt;br&gt;tipo_tempo_execucao: TipoTempoExecucao&lt;br&gt;tempo_execucao: double&lt;br&gt;taxa_execucao : double&lt;br&gt;tempo_pausa_proxima_operacao: timestamp&lt;br&gt;tempo_pausa_operacao_anterior: timestamp&lt;br&gt;tempo_maximo_pausa_operacao_anterior: timestamp&lt;br&gt;tempo_de_armazenamento: timestamp&lt;br&gt;&lt;/font&gt;" style="text;html=1;align=left;verticalAlign=middle;spacingLeft=4;spacingRight=4;overflow=hidden;rotatable=0;points=[[0,0.5],[1,0.5]];portConstraint=eastwest;fillColor=#647687;strokeColor=#314354;strokeWidth=2;fontColor=#FFE6CC;" parent="27" vertex="1">
                    <mxGeometry y="29" width="320" height="231" as="geometry"/>
                </mxCell>
                <mxCell id="29" value="Material" style="swimlane;fontStyle=1;align=center;verticalAlign=middle;childLayout=stackLayout;horizontal=1;startSize=29;horizontalStack=0;resizeParent=1;resizeParentMax=0;resizeLast=0;collapsible=0;marginBottom=0;html=1;fillColor=#647687;strokeColor=#314354;strokeWidth=2;fontColor=#FFE6CC;" parent="1" vertex="1">
                    <mxGeometry x="1400" y="610" width="140" height="90" as="geometry"/>
                </mxCell>
                <mxCell id="30" value="&lt;span data-lucid-type=&quot;application/vnd.lucid.text&quot; data-lucid-content=&quot;{&amp;quot;t&amp;quot;:&amp;quot;codigo: varchar(30)\ndescricao: varchar(30)\n&amp;quot;,&amp;quot;m&amp;quot;:[{&amp;quot;s&amp;quot;:0,&amp;quot;n&amp;quot;:&amp;quot;c&amp;quot;,&amp;quot;v&amp;quot;:&amp;quot;000000ff&amp;quot;,&amp;quot;e&amp;quot;:43},{&amp;quot;s&amp;quot;:0,&amp;quot;n&amp;quot;:&amp;quot;s&amp;quot;,&amp;quot;v&amp;quot;:22.44444444444444,&amp;quot;e&amp;quot;:43}]}&quot; style=&quot;font-size: 13px&quot;&gt;&lt;span style=&quot;&quot;&gt;codigo: varchar(30)&lt;br&gt;&lt;/span&gt;&lt;span style=&quot;&quot;&gt;descricao: varchar(30)&lt;br&gt;&lt;/span&gt;&lt;/span&gt;" style="text;html=1;align=left;verticalAlign=middle;spacingLeft=4;spacingRight=4;overflow=hidden;rotatable=0;points=[[0,0.5],[1,0.5]];portConstraint=eastwest;fillColor=#647687;strokeColor=#314354;strokeWidth=2;fontColor=#FFE6CC;" parent="29" vertex="1">
                    <mxGeometry y="29" width="140" height="61" as="geometry"/>
                </mxCell>
                <mxCell id="31" value="Grupo de restrição" style="swimlane;fontStyle=1;align=center;verticalAlign=middle;childLayout=stackLayout;horizontal=1;startSize=29;horizontalStack=0;resizeParent=1;resizeParentMax=0;resizeLast=0;collapsible=0;marginBottom=0;html=1;fillColor=#647687;strokeColor=#314354;strokeWidth=2;fontColor=#FFE6CC;" parent="1" vertex="1">
                    <mxGeometry x="300" y="960" width="150" height="110" as="geometry"/>
                </mxCell>
                <mxCell id="32" value="&lt;span data-lucid-type=&quot;application/vnd.lucid.text&quot; data-lucid-content=&quot;{&amp;quot;t&amp;quot;:&amp;quot;codigo : varchar(30)\ndescricao : varchar(60)\ntipo: TipoRestricao&amp;quot;,&amp;quot;m&amp;quot;:[{&amp;quot;s&amp;quot;:0,&amp;quot;n&amp;quot;:&amp;quot;s&amp;quot;,&amp;quot;v&amp;quot;:22.44444444444444,&amp;quot;e&amp;quot;:64},{&amp;quot;s&amp;quot;:0,&amp;quot;n&amp;quot;:&amp;quot;c&amp;quot;,&amp;quot;v&amp;quot;:&amp;quot;000000ff&amp;quot;,&amp;quot;e&amp;quot;:64}]}&quot; style=&quot;font-size: 13px&quot;&gt;&lt;span style=&quot;&quot;&gt;codigo : varchar(30)&lt;br&gt;&lt;/span&gt;&lt;span style=&quot;&quot;&gt;descricao : varchar(60)&lt;br&gt;&lt;/span&gt;&lt;span style=&quot;&quot;&gt;tipo: TipoRestricao&lt;/span&gt;&lt;/span&gt;" style="text;html=1;align=left;verticalAlign=middle;spacingLeft=4;spacingRight=4;overflow=hidden;rotatable=0;points=[[0,0.5],[1,0.5]];portConstraint=eastwest;fillColor=#647687;strokeColor=#314354;strokeWidth=2;fontColor=#FFE6CC;" parent="31" vertex="1">
                    <mxGeometry y="29" width="150" height="81" as="geometry"/>
                </mxCell>
                <mxCell id="33" value="Recurso Elegivel" style="swimlane;fontStyle=1;align=center;verticalAlign=middle;childLayout=stackLayout;horizontal=1;startSize=29;horizontalStack=0;resizeParent=1;resizeParentMax=0;resizeLast=0;collapsible=0;marginBottom=0;html=1;fillColor=#647687;strokeColor=#314354;strokeWidth=2;fontColor=#FFE6CC;" parent="1" vertex="1">
                    <mxGeometry x="540" y="295" width="330" height="180" as="geometry"/>
                </mxCell>
                <mxCell id="34" value="&lt;font style=&quot;font-size: 13px&quot;&gt;tempo_execucao: double&lt;br&gt;taxa_execucao : double&lt;br&gt;tempo_pausa_proxima_operacao: timestamp&lt;br&gt;tempo_pausa_operacao_anterior: timestamp&lt;br&gt;tempo_maximo_pausa_operacao_anterior: timestamp&lt;br&gt;tempo_de_armazenamento: timestamp&lt;br&gt;&lt;/font&gt;" style="text;html=1;align=left;verticalAlign=middle;spacingLeft=4;spacingRight=4;overflow=hidden;rotatable=0;points=[[0,0.5],[1,0.5]];portConstraint=eastwest;fillColor=#647687;strokeColor=#314354;strokeWidth=2;fontColor=#FFE6CC;" parent="33" vertex="1">
                    <mxGeometry y="29" width="330" height="151" as="geometry"/>
                </mxCell>
                <mxCell id="37" value="Separação de Restrição" style="swimlane;fontStyle=1;align=center;verticalAlign=middle;childLayout=stackLayout;horizontal=1;startSize=29;horizontalStack=0;resizeParent=1;resizeParentMax=0;resizeLast=0;collapsible=0;marginBottom=0;html=1;fillColor=#647687;strokeColor=#314354;strokeWidth=2;fontColor=#FFE6CC;" parent="1" vertex="1">
                    <mxGeometry x="748" y="632" width="248" height="117" as="geometry"/>
                </mxCell>
                <mxCell id="38" value="&lt;font style=&quot;font-size: 13px&quot;&gt;&lt;span&gt;codigo: varchar(30)&lt;br&gt;descricao: varchar(60)&lt;br&gt;quantidade_necessaria: double&lt;br&gt;&lt;/span&gt;&lt;span&gt;momento_necessario : TipoMomento&lt;/span&gt;&lt;/font&gt;&lt;font style=&quot;font-size: 13px&quot;&gt;&lt;br&gt;&lt;/font&gt;" style="text;html=1;align=left;verticalAlign=middle;spacingLeft=4;spacingRight=4;overflow=hidden;rotatable=0;points=[[0,0.5],[1,0.5]];portConstraint=eastwest;fillColor=#647687;strokeColor=#314354;strokeWidth=2;fontColor=#FFE6CC;" parent="37" vertex="1">
                    <mxGeometry y="29" width="248" height="88" as="geometry"/>
                </mxCell>
                <mxCell id="40" value="Restricao Elegivel" style="swimlane;fontStyle=1;align=center;verticalAlign=middle;childLayout=stackLayout;horizontal=1;startSize=29;horizontalStack=0;resizeParent=1;resizeParentMax=0;resizeLast=0;collapsible=0;marginBottom=0;html=1;fillColor=#647687;strokeColor=#314354;strokeWidth=2;fontColor=#FFE6CC;" parent="1" vertex="1">
                    <mxGeometry x="505" y="769" width="250" height="70" as="geometry"/>
                </mxCell>
                <mxCell id="41" value="&lt;font&gt;&lt;font&gt;&lt;span style=&quot;font-size: 13px&quot;&gt;tempo_de_alocacao: datetime&lt;/span&gt;&lt;/font&gt;&lt;br&gt;&lt;/font&gt;" style="text;html=1;align=left;verticalAlign=middle;spacingLeft=4;spacingRight=4;overflow=hidden;rotatable=0;points=[[0,0.5],[1,0.5]];portConstraint=eastwest;fillColor=#647687;strokeColor=#314354;strokeWidth=2;fontColor=#FFE6CC;" parent="40" vertex="1">
                    <mxGeometry y="29" width="250" height="41" as="geometry"/>
                </mxCell>
                <mxCell id="42" value="Material Ficha &lt;br&gt;Técnica" style="swimlane;fontStyle=1;align=center;verticalAlign=middle;childLayout=stackLayout;horizontal=1;startSize=29;horizontalStack=0;resizeParent=1;resizeParentMax=0;resizeLast=0;collapsible=0;marginBottom=0;html=1;fillColor=#647687;strokeColor=#314354;strokeWidth=2;fontColor=#FFE6CC;" parent="1" vertex="1">
                    <mxGeometry x="1490" y="830" width="140" height="80" as="geometry"/>
                </mxCell>
                <mxCell id="43" value="&lt;font style=&quot;font-size: 13px&quot;&gt;&lt;span data-lucid-type=&quot;application/vnd.lucid.text&quot; data-lucid-content=&quot;{&amp;quot;t&amp;quot;:&amp;quot;quantidade: double\nproduto_atributo : json&amp;quot;,&amp;quot;m&amp;quot;:[{&amp;quot;s&amp;quot;:0,&amp;quot;n&amp;quot;:&amp;quot;s&amp;quot;,&amp;quot;v&amp;quot;:22.44444444444444,&amp;quot;e&amp;quot;:42},{&amp;quot;s&amp;quot;:0,&amp;quot;n&amp;quot;:&amp;quot;c&amp;quot;,&amp;quot;v&amp;quot;:&amp;quot;000000ff&amp;quot;,&amp;quot;e&amp;quot;:42}]}&quot;&gt;&lt;span style=&quot;&quot;&gt;quantidade: double&lt;br&gt;&lt;/span&gt;&lt;span style=&quot;&quot;&gt;produto_atributo : json&lt;/span&gt;&lt;/span&gt;&lt;br&gt;&lt;/font&gt;" style="text;html=1;align=left;verticalAlign=middle;spacingLeft=4;spacingRight=4;overflow=hidden;rotatable=0;points=[[0,0.5],[1,0.5]];portConstraint=eastwest;fillColor=#647687;strokeColor=#314354;strokeWidth=2;fontColor=#FFE6CC;" parent="42" vertex="1">
                    <mxGeometry y="29" width="140" height="51" as="geometry"/>
                </mxCell>
                <mxCell id="44" value="Ficha Técnica" style="swimlane;fontStyle=1;align=center;verticalAlign=middle;childLayout=stackLayout;horizontal=1;startSize=29;horizontalStack=0;resizeParent=1;resizeParentMax=0;resizeLast=0;collapsible=0;marginBottom=0;html=1;fillColor=#647687;strokeColor=#314354;strokeWidth=2;fontColor=#FFE6CC;" parent="1" vertex="1">
                    <mxGeometry x="1490" y="990" width="210" height="140" as="geometry"/>
                </mxCell>
                <mxCell id="45" value="&lt;font style=&quot;font-size: 13px&quot;&gt;&lt;span data-lucid-type=&quot;application/vnd.lucid.text&quot; data-lucid-content=&quot;{&amp;quot;t&amp;quot;:&amp;quot;quantidade: double\ninidcio_validade: datetime\nfim_validade: datetime\nquantidade_minima: double\nquantidaade_minima_lote: double\natributo: json&amp;quot;,&amp;quot;m&amp;quot;:[{&amp;quot;s&amp;quot;:0,&amp;quot;n&amp;quot;:&amp;quot;s&amp;quot;,&amp;quot;v&amp;quot;:22.44444444444444,&amp;quot;e&amp;quot;:141},{&amp;quot;s&amp;quot;:0,&amp;quot;n&amp;quot;:&amp;quot;c&amp;quot;,&amp;quot;v&amp;quot;:&amp;quot;000000ff&amp;quot;,&amp;quot;e&amp;quot;:141}]}&quot;&gt;&lt;span style=&quot;&quot;&gt;quantidade: double&lt;br&gt;&lt;/span&gt;&lt;span style=&quot;&quot;&gt;inidcio_validade: datetime&lt;br&gt;&lt;/span&gt;&lt;span style=&quot;&quot;&gt;fim_validade: datetime&lt;br&gt;&lt;/span&gt;&lt;span style=&quot;&quot;&gt;quantidade_minima: double&lt;br&gt;&lt;/span&gt;&lt;span style=&quot;&quot;&gt;quantidaade_minima_lote: double&lt;br&gt;&lt;/span&gt;&lt;span style=&quot;&quot;&gt;atributo: json&lt;/span&gt;&lt;/span&gt;&lt;br&gt;&lt;/font&gt;" style="text;html=1;align=left;verticalAlign=middle;spacingLeft=4;spacingRight=4;overflow=hidden;rotatable=0;points=[[0,0.5],[1,0.5]];portConstraint=eastwest;fillColor=#647687;strokeColor=#314354;strokeWidth=2;fontColor=#FFE6CC;" parent="44" vertex="1">
                    <mxGeometry y="29" width="210" height="111" as="geometry"/>
                </mxCell>
                <mxCell id="49" value="Unidade" style="swimlane;fontStyle=1;align=center;verticalAlign=middle;childLayout=stackLayout;horizontal=1;startSize=29;horizontalStack=0;resizeParent=1;resizeParentMax=0;resizeLast=0;collapsible=0;marginBottom=0;html=1;fillColor=#647687;strokeColor=#314354;strokeWidth=2;fontColor=#FFE6CC;" parent="1" vertex="1">
                    <mxGeometry x="1405" y="360" width="130" height="80" as="geometry"/>
                </mxCell>
                <mxCell id="50" value="&lt;span data-lucid-type=&quot;application/vnd.lucid.text&quot; data-lucid-content=&quot;{&amp;quot;t&amp;quot;:&amp;quot;codigo: varchar(30)\ndescricao: varchar(30)&amp;quot;,&amp;quot;m&amp;quot;:[{&amp;quot;s&amp;quot;:0,&amp;quot;n&amp;quot;:&amp;quot;s&amp;quot;,&amp;quot;v&amp;quot;:22.44444444444444,&amp;quot;e&amp;quot;:42},{&amp;quot;s&amp;quot;:0,&amp;quot;n&amp;quot;:&amp;quot;c&amp;quot;,&amp;quot;v&amp;quot;:&amp;quot;000000ff&amp;quot;,&amp;quot;e&amp;quot;:42}]}&quot; style=&quot;font-size: 13px&quot;&gt;&lt;span style=&quot;&quot;&gt;codigo: varchar(30)&lt;br&gt;&lt;/span&gt;&lt;span style=&quot;&quot;&gt;descricao: varchar(30)&lt;/span&gt;&lt;/span&gt;" style="text;html=1;align=left;verticalAlign=middle;spacingLeft=4;spacingRight=4;overflow=hidden;rotatable=0;points=[[0,0.5],[1,0.5]];portConstraint=eastwest;fillColor=#647687;strokeColor=#314354;strokeWidth=2;fontColor=#FFE6CC;" parent="49" vertex="1">
                    <mxGeometry y="29" width="130" height="51" as="geometry"/>
                </mxCell>
                <mxCell id="142" style="edgeStyle=orthogonalEdgeStyle;shape=connector;rounded=1;sketch=0;jumpStyle=none;html=1;labelBackgroundColor=default;fontFamily=Helvetica;fontSize=11;fontColor=default;startArrow=none;startFill=0;endArrow=none;endFill=0;startSize=14;endSize=12;targetPerimeterSpacing=0;strokeColor=default;" parent="1" source="51" edge="1">
                    <mxGeometry relative="1" as="geometry">
                        <mxPoint x="1470" y="520" as="targetPoint"/>
                    </mxGeometry>
                </mxCell>
                <mxCell id="51" value="Conversão" style="swimlane;fontStyle=1;align=center;verticalAlign=middle;childLayout=stackLayout;horizontal=1;startSize=29;horizontalStack=0;resizeParent=1;resizeParentMax=0;resizeLast=0;collapsible=0;marginBottom=0;html=1;fillColor=#647687;strokeColor=#314354;strokeWidth=2;fontColor=#FFE6CC;" parent="1" vertex="1">
                    <mxGeometry x="1581" y="484" width="130" height="70" as="geometry"/>
                </mxCell>
                <mxCell id="52" value="&lt;font style=&quot;font-size: 13px&quot;&gt;&lt;span data-lucid-type=&quot;application/vnd.lucid.text&quot; data-lucid-content=&quot;{&amp;quot;t&amp;quot;:&amp;quot;razao: double\npadrao : boolean\n&amp;quot;,&amp;quot;m&amp;quot;:[{&amp;quot;s&amp;quot;:0,&amp;quot;n&amp;quot;:&amp;quot;s&amp;quot;,&amp;quot;v&amp;quot;:22.44444444444444,&amp;quot;e&amp;quot;:31},{&amp;quot;s&amp;quot;:0,&amp;quot;n&amp;quot;:&amp;quot;c&amp;quot;,&amp;quot;v&amp;quot;:&amp;quot;000000ff&amp;quot;,&amp;quot;e&amp;quot;:31}]}&quot;&gt;&lt;span style=&quot;&quot;&gt;razao: double&lt;br&gt;&lt;/span&gt;&lt;span style=&quot;&quot;&gt;padrao : boolean&lt;/span&gt;&lt;/span&gt;&lt;/font&gt;" style="text;html=1;align=left;verticalAlign=middle;spacingLeft=4;spacingRight=4;overflow=hidden;rotatable=0;points=[[0,0.5],[1,0.5]];portConstraint=eastwest;fillColor=#647687;strokeColor=#314354;strokeWidth=2;fontColor=#FFE6CC;" parent="51" vertex="1">
                    <mxGeometry y="29" width="130" height="41" as="geometry"/>
                </mxCell>
                <mxCell id="57" value="Material em Operação" style="swimlane;fontStyle=1;align=center;verticalAlign=middle;childLayout=stackLayout;horizontal=1;startSize=29;horizontalStack=0;resizeParent=1;resizeParentMax=0;resizeLast=0;collapsible=0;marginBottom=0;html=1;fillColor=#647687;strokeColor=#314354;strokeWidth=2;fontColor=#FFE6CC;" parent="1" vertex="1">
                    <mxGeometry x="873" y="24" width="198" height="138" as="geometry"/>
                </mxCell>
                <mxCell id="58" value="&lt;font style=&quot;font-size: 13px&quot;&gt;&lt;span data-lucid-type=&quot;application/vnd.lucid.text&quot; data-lucid-content=&quot;{&amp;#34;t&amp;#34;:&amp;#34;tipo: TipoMaterialUsado\nquantidade: double\n&amp;#34;,&amp;#34;m&amp;#34;:[{&amp;#34;s&amp;#34;:0,&amp;#34;n&amp;#34;:&amp;#34;s&amp;#34;,&amp;#34;v&amp;#34;:21.333333333333336,&amp;#34;e&amp;#34;:43},{&amp;#34;s&amp;#34;:0,&amp;#34;n&amp;#34;:&amp;#34;c&amp;#34;,&amp;#34;v&amp;#34;:&amp;#34;#000000ff&amp;#34;,&amp;#34;e&amp;#34;:43}]}&quot;&gt;&lt;span&gt;movimento: TipoMovimento&lt;/span&gt;&lt;span&gt;&lt;br&gt;&lt;/span&gt;&lt;span&gt;quantidade: double&lt;br&gt;&lt;/span&gt;tempo_execucao: timestamp&lt;br&gt;quantidade_minima : double&lt;br&gt;quantidade_maxima : double&lt;br&gt;&lt;span&gt;quantidade_economica : double&lt;br&gt;&lt;/span&gt;&lt;/span&gt;&lt;/font&gt;" style="text;html=1;align=left;verticalAlign=middle;spacingLeft=4;spacingRight=4;overflow=hidden;rotatable=0;points=[[0,0.5],[1,0.5]];portConstraint=eastwest;fillColor=#647687;strokeColor=#314354;strokeWidth=2;fontColor=#FFE6CC;" parent="57" vertex="1">
                    <mxGeometry y="29" width="198" height="109" as="geometry"/>
                </mxCell>
                <mxCell id="59" value="Roteiro" style="swimlane;fontStyle=1;align=center;verticalAlign=middle;childLayout=stackLayout;horizontal=1;startSize=29;horizontalStack=0;resizeParent=1;resizeParentMax=0;resizeLast=0;collapsible=0;marginBottom=0;html=1;fillColor=#647687;strokeColor=#314354;strokeWidth=2;fontColor=#FFE6CC;" parent="1" vertex="1">
                    <mxGeometry x="1195" y="1140" width="140" height="100" as="geometry"/>
                </mxCell>
                <mxCell id="60" value="&lt;font style=&quot;font-size: 13px&quot;&gt;&lt;span data-lucid-type=&quot;application/vnd.lucid.text&quot; data-lucid-content=&quot;{&amp;quot;t&amp;quot;:&amp;quot;versao : int\nvalidade_inicio: date\nvalidade_fim: date\n&amp;quot;,&amp;quot;m&amp;quot;:[{&amp;quot;s&amp;quot;:0,&amp;quot;n&amp;quot;:&amp;quot;s&amp;quot;,&amp;quot;v&amp;quot;:22.44444444444444,&amp;quot;e&amp;quot;:54},{&amp;quot;s&amp;quot;:0,&amp;quot;n&amp;quot;:&amp;quot;c&amp;quot;,&amp;quot;v&amp;quot;:&amp;quot;000000ff&amp;quot;,&amp;quot;e&amp;quot;:54}]}&quot;&gt;&lt;span style=&quot;&quot;&gt;versao : int&lt;br&gt;&lt;/span&gt;&lt;span style=&quot;&quot;&gt;validade_inicio: date&lt;br&gt;&lt;/span&gt;&lt;span style=&quot;&quot;&gt;validade_fim: date&lt;/span&gt;&lt;/span&gt;&lt;br&gt;&lt;/font&gt;" style="text;html=1;align=left;verticalAlign=middle;spacingLeft=4;spacingRight=4;overflow=hidden;rotatable=0;points=[[0,0.5],[1,0.5]];portConstraint=eastwest;fillColor=#647687;strokeColor=#314354;strokeWidth=2;fontColor=#FFE6CC;" parent="59" vertex="1">
                    <mxGeometry y="29" width="140" height="71" as="geometry"/>
                </mxCell>
                <mxCell id="81" value="" style="endArrow=none;endSize=12;startArrow=none;startSize=14;startFill=0;edgeStyle=orthogonalEdgeStyle;sketch=0;targetPerimeterSpacing=0;strokeColor=default;jumpStyle=none;exitX=0.5;exitY=1;exitDx=0;exitDy=0;entryX=0.5;entryY=0;entryDx=0;entryDy=0;endFill=0;spacingRight=0;spacing=2;html=1;" parent="1" source="6" target="15" edge="1">
                    <mxGeometry x="-0.0151" y="30" relative="1" as="geometry">
                        <mxPoint x="-349.17" y="130" as="sourcePoint"/>
                        <mxPoint x="-214.17000000000002" y="279.5" as="targetPoint"/>
                        <mxPoint as="offset"/>
                    </mxGeometry>
                </mxCell>
                <mxCell id="82" value="1" style="edgeLabel;resizable=0;html=1;align=left;verticalAlign=top;" parent="81" connectable="0" vertex="1">
                    <mxGeometry x="-1" relative="1" as="geometry"/>
                </mxCell>
                <mxCell id="83" value="0..*&lt;br&gt;" style="edgeLabel;resizable=0;html=1;align=right;verticalAlign=top;rotation=0;" parent="81" connectable="0" vertex="1">
                    <mxGeometry x="1" relative="1" as="geometry">
                        <mxPoint x="-5" y="-30" as="offset"/>
                    </mxGeometry>
                </mxCell>
                <mxCell id="84" value="" style="endArrow=none;endSize=12;startArrow=none;startSize=14;startFill=0;sketch=0;targetPerimeterSpacing=0;strokeColor=default;jumpStyle=none;entryX=0.5;entryY=0;entryDx=0;entryDy=0;endFill=0;spacingRight=0;spacing=2;html=1;exitX=0;exitY=0.5;exitDx=0;exitDy=0;edgeStyle=orthogonalEdgeStyle;" parent="1" source="19" target="200" edge="1">
                    <mxGeometry relative="1" as="geometry">
                        <mxPoint x="300" y="490" as="sourcePoint"/>
                        <mxPoint x="147.48" y="610" as="targetPoint"/>
                    </mxGeometry>
                </mxCell>
                <mxCell id="85" value="0..*" style="edgeLabel;resizable=0;html=1;align=left;verticalAlign=top;" parent="84" connectable="0" vertex="1">
                    <mxGeometry x="-1" relative="1" as="geometry">
                        <mxPoint x="-50" as="offset"/>
                    </mxGeometry>
                </mxCell>
                <mxCell id="86" value="1" style="edgeLabel;resizable=0;html=1;align=right;verticalAlign=top;rotation=0;" parent="84" connectable="0" vertex="1">
                    <mxGeometry x="1" relative="1" as="geometry">
                        <mxPoint x="-5" y="-30" as="offset"/>
                    </mxGeometry>
                </mxCell>
                <mxCell id="87" value="" style="endArrow=none;endSize=12;startArrow=none;startSize=14;startFill=0;edgeStyle=orthogonalEdgeStyle;sketch=0;targetPerimeterSpacing=0;strokeColor=default;jumpStyle=none;exitX=0.5;exitY=1;exitDx=0;exitDy=0;entryX=0.5;entryY=0;entryDx=0;entryDy=0;endFill=0;spacingRight=0;spacing=2;html=1;" parent="1" source="200" target="17" edge="1">
                    <mxGeometry x="-0.0151" y="30" relative="1" as="geometry">
                        <mxPoint x="95.83" y="735" as="sourcePoint"/>
                        <mxPoint x="95.83" y="845" as="targetPoint"/>
                        <mxPoint as="offset"/>
                    </mxGeometry>
                </mxCell>
                <mxCell id="88" value="1&lt;br&gt;" style="edgeLabel;resizable=0;html=1;align=left;verticalAlign=top;" parent="87" connectable="0" vertex="1">
                    <mxGeometry x="-1" relative="1" as="geometry">
                        <mxPoint x="5" as="offset"/>
                    </mxGeometry>
                </mxCell>
                <mxCell id="89" value="1..*" style="edgeLabel;resizable=0;html=1;align=right;verticalAlign=top;rotation=0;" parent="87" connectable="0" vertex="1">
                    <mxGeometry x="1" relative="1" as="geometry">
                        <mxPoint x="-5" y="-30" as="offset"/>
                    </mxGeometry>
                </mxCell>
                <mxCell id="90" value="" style="endArrow=none;endSize=12;startArrow=none;startSize=14;startFill=0;edgeStyle=orthogonalEdgeStyle;sketch=0;targetPerimeterSpacing=0;strokeColor=default;jumpStyle=none;entryX=1;entryY=0.5;entryDx=0;entryDy=0;endFill=0;spacingRight=0;spacing=2;html=1;exitX=0;exitY=0.25;exitDx=0;exitDy=0;" parent="1" source="19" target="15" edge="1">
                    <mxGeometry x="-0.0151" y="30" relative="1" as="geometry">
                        <mxPoint x="380" y="360" as="sourcePoint"/>
                        <mxPoint x="165" y="370" as="targetPoint"/>
                        <mxPoint as="offset"/>
                    </mxGeometry>
                </mxCell>
                <mxCell id="91" value="0..*&lt;br&gt;" style="edgeLabel;resizable=0;html=1;align=left;verticalAlign=top;" parent="90" connectable="0" vertex="1">
                    <mxGeometry x="-1" relative="1" as="geometry">
                        <mxPoint x="-30" as="offset"/>
                    </mxGeometry>
                </mxCell>
                <mxCell id="92" value="1" style="edgeLabel;resizable=0;html=1;align=right;verticalAlign=top;rotation=0;" parent="90" connectable="0" vertex="1">
                    <mxGeometry x="1" relative="1" as="geometry">
                        <mxPoint x="30" y="-25" as="offset"/>
                    </mxGeometry>
                </mxCell>
                <mxCell id="93" value="" style="endArrow=none;endSize=12;startArrow=none;startSize=14;startFill=0;edgeStyle=orthogonalEdgeStyle;sketch=0;targetPerimeterSpacing=0;strokeColor=default;jumpStyle=none;endFill=0;spacingRight=0;spacing=2;html=1;exitX=0;exitY=0.25;exitDx=0;exitDy=0;entryX=1;entryY=0.75;entryDx=0;entryDy=0;" parent="1" source="21" target="19" edge="1">
                    <mxGeometry x="-0.0151" y="30" relative="1" as="geometry">
                        <mxPoint x="389.9999999999998" y="425" as="sourcePoint"/>
                        <mxPoint x="570" y="380" as="targetPoint"/>
                        <mxPoint as="offset"/>
                    </mxGeometry>
                </mxCell>
                <mxCell id="94" value="1" style="edgeLabel;resizable=0;html=1;align=left;verticalAlign=top;" parent="93" connectable="0" vertex="1">
                    <mxGeometry x="-1" relative="1" as="geometry">
                        <mxPoint x="-30" y="-20" as="offset"/>
                    </mxGeometry>
                </mxCell>
                <mxCell id="95" value="0..*" style="edgeLabel;resizable=0;html=1;align=right;verticalAlign=top;rotation=0;" parent="93" connectable="0" vertex="1">
                    <mxGeometry x="1" relative="1" as="geometry">
                        <mxPoint x="41" y="8" as="offset"/>
                    </mxGeometry>
                </mxCell>
                <mxCell id="97" value="" style="endArrow=none;endSize=12;startArrow=none;startSize=14;startFill=0;edgeStyle=orthogonalEdgeStyle;sketch=0;targetPerimeterSpacing=0;strokeColor=default;jumpStyle=none;entryX=0.5;entryY=0;entryDx=0;entryDy=0;endFill=0;spacingRight=0;spacing=2;html=1;exitX=0.25;exitY=1;exitDx=0;exitDy=0;" parent="1" source="19" target="13" edge="1">
                    <mxGeometry x="-0.0151" y="30" relative="1" as="geometry">
                        <mxPoint x="320" y="450" as="sourcePoint"/>
                        <mxPoint x="259.9999999999998" y="435" as="targetPoint"/>
                        <mxPoint as="offset"/>
                    </mxGeometry>
                </mxCell>
                <mxCell id="98" value="0..*&lt;br&gt;" style="edgeLabel;resizable=0;html=1;align=left;verticalAlign=top;" parent="97" connectable="0" vertex="1">
                    <mxGeometry x="-1" relative="1" as="geometry">
                        <mxPoint x="-30" as="offset"/>
                    </mxGeometry>
                </mxCell>
                <mxCell id="99" value="0..*" style="edgeLabel;resizable=0;html=1;align=right;verticalAlign=top;rotation=0;" parent="97" connectable="0" vertex="1">
                    <mxGeometry x="1" relative="1" as="geometry">
                        <mxPoint x="21" y="-26" as="offset"/>
                    </mxGeometry>
                </mxCell>
                <mxCell id="100" value="" style="endArrow=none;endSize=12;startArrow=none;startSize=14;startFill=0;edgeStyle=orthogonalEdgeStyle;sketch=0;targetPerimeterSpacing=0;strokeColor=default;jumpStyle=none;entryX=0.5;entryY=0;entryDx=0;entryDy=0;endFill=0;spacingRight=0;spacing=2;html=1;exitX=0.5;exitY=1;exitDx=0;exitDy=0;" parent="1" source="13" target="23" edge="1">
                    <mxGeometry x="-0.0151" y="30" relative="1" as="geometry">
                        <mxPoint x="400" y="700" as="sourcePoint"/>
                        <mxPoint x="269.9999999999998" y="445" as="targetPoint"/>
                        <mxPoint as="offset"/>
                    </mxGeometry>
                </mxCell>
                <mxCell id="101" value="0..*&lt;br&gt;" style="edgeLabel;resizable=0;html=1;align=left;verticalAlign=top;" parent="100" connectable="0" vertex="1">
                    <mxGeometry x="-1" relative="1" as="geometry">
                        <mxPoint x="-30" as="offset"/>
                    </mxGeometry>
                </mxCell>
                <mxCell id="102" value="0..*" style="edgeLabel;resizable=0;html=1;align=right;verticalAlign=top;rotation=0;" parent="100" connectable="0" vertex="1">
                    <mxGeometry x="1" relative="1" as="geometry">
                        <mxPoint x="30" y="-25" as="offset"/>
                    </mxGeometry>
                </mxCell>
                <mxCell id="113" value="" style="endArrow=none;endSize=12;startArrow=none;startSize=14;startFill=0;edgeStyle=orthogonalEdgeStyle;sketch=0;targetPerimeterSpacing=0;strokeColor=default;jumpStyle=none;entryX=0.5;entryY=0;entryDx=0;entryDy=0;endFill=0;spacingRight=0;spacing=2;html=1;exitX=0.5;exitY=1;exitDx=0;exitDy=0;" parent="1" source="23" target="31" edge="1">
                    <mxGeometry x="-0.0151" y="30" relative="1" as="geometry">
                        <mxPoint x="490" y="900" as="sourcePoint"/>
                        <mxPoint x="490" y="980" as="targetPoint"/>
                        <mxPoint as="offset"/>
                    </mxGeometry>
                </mxCell>
                <mxCell id="114" value="0..*&lt;br&gt;" style="edgeLabel;resizable=0;html=1;align=left;verticalAlign=top;" parent="113" connectable="0" vertex="1">
                    <mxGeometry x="-1" relative="1" as="geometry">
                        <mxPoint x="-30" as="offset"/>
                    </mxGeometry>
                </mxCell>
                <mxCell id="115" value="1..*" style="edgeLabel;resizable=0;html=1;align=right;verticalAlign=top;rotation=0;" parent="113" connectable="0" vertex="1">
                    <mxGeometry x="1" relative="1" as="geometry">
                        <mxPoint x="30" y="-25" as="offset"/>
                    </mxGeometry>
                </mxCell>
                <mxCell id="119" value="" style="endArrow=none;endSize=12;startArrow=none;startSize=14;startFill=0;edgeStyle=orthogonalEdgeStyle;sketch=0;targetPerimeterSpacing=0;strokeColor=default;jumpStyle=none;exitX=1;exitY=0.75;exitDx=0;exitDy=0;entryX=0.5;entryY=0;entryDx=0;entryDy=0;endFill=0;spacingRight=0;spacing=2;html=1;" parent="1" source="57" target="27" edge="1">
                    <mxGeometry x="-0.0151" y="30" relative="1" as="geometry">
                        <mxPoint x="800" y="250" as="sourcePoint"/>
                        <mxPoint x="935" y="399.5" as="targetPoint"/>
                        <mxPoint as="offset"/>
                    </mxGeometry>
                </mxCell>
                <mxCell id="120" value="1..*" style="edgeLabel;resizable=0;html=1;align=left;verticalAlign=top;" parent="119" connectable="0" vertex="1">
                    <mxGeometry x="-1" relative="1" as="geometry">
                        <mxPoint x="2" y="-5" as="offset"/>
                    </mxGeometry>
                </mxCell>
                <mxCell id="121" value="1" style="edgeLabel;resizable=0;html=1;align=right;verticalAlign=top;rotation=0;" parent="119" connectable="0" vertex="1">
                    <mxGeometry x="1" relative="1" as="geometry">
                        <mxPoint x="-5" y="-30" as="offset"/>
                    </mxGeometry>
                </mxCell>
                <mxCell id="126" value="" style="endArrow=none;endSize=12;startArrow=none;startSize=14;startFill=0;edgeStyle=orthogonalEdgeStyle;sketch=0;targetPerimeterSpacing=0;strokeColor=default;jumpStyle=none;exitX=1;exitY=0.5;exitDx=0;exitDy=0;entryX=0;entryY=0.5;entryDx=0;entryDy=0;endFill=0;spacingRight=0;spacing=2;html=1;" parent="1" source="19" target="33" edge="1">
                    <mxGeometry x="-0.0151" y="30" relative="1" as="geometry">
                        <mxPoint x="590" y="260.5" as="sourcePoint"/>
                        <mxPoint x="697" y="260" as="targetPoint"/>
                        <mxPoint as="offset"/>
                    </mxGeometry>
                </mxCell>
                <mxCell id="127" value="1" style="edgeLabel;resizable=0;html=1;align=left;verticalAlign=top;" parent="126" connectable="0" vertex="1">
                    <mxGeometry x="-1" relative="1" as="geometry">
                        <mxPoint y="-25" as="offset"/>
                    </mxGeometry>
                </mxCell>
                <mxCell id="128" value="0..*" style="edgeLabel;resizable=0;html=1;align=right;verticalAlign=top;rotation=0;" parent="126" connectable="0" vertex="1">
                    <mxGeometry x="1" relative="1" as="geometry">
                        <mxPoint x="-5" y="-30" as="offset"/>
                    </mxGeometry>
                </mxCell>
                <mxCell id="129" value="" style="endArrow=none;endSize=12;startArrow=none;startSize=14;startFill=0;edgeStyle=orthogonalEdgeStyle;sketch=0;targetPerimeterSpacing=0;strokeColor=default;jumpStyle=none;exitX=0.5;exitY=0;exitDx=0;exitDy=0;entryX=0.75;entryY=1;entryDx=0;entryDy=0;endFill=0;spacingRight=0;spacing=2;html=1;" parent="1" source="37" target="33" edge="1">
                    <mxGeometry x="-0.0151" y="30" relative="1" as="geometry">
                        <mxPoint x="880" y="425" as="sourcePoint"/>
                        <mxPoint x="987" y="424.5" as="targetPoint"/>
                        <mxPoint as="offset"/>
                    </mxGeometry>
                </mxCell>
                <mxCell id="130" value="0..*" style="edgeLabel;resizable=0;html=1;align=left;verticalAlign=top;" parent="129" connectable="0" vertex="1">
                    <mxGeometry x="-1" relative="1" as="geometry">
                        <mxPoint x="8" y="-30" as="offset"/>
                    </mxGeometry>
                </mxCell>
                <mxCell id="131" value="1" style="edgeLabel;resizable=0;html=1;align=right;verticalAlign=top;rotation=0;" parent="129" connectable="0" vertex="1">
                    <mxGeometry x="1" relative="1" as="geometry">
                        <mxPoint x="-7" as="offset"/>
                    </mxGeometry>
                </mxCell>
                <mxCell id="132" value="" style="endArrow=none;endSize=12;startArrow=none;startSize=14;startFill=0;edgeStyle=orthogonalEdgeStyle;sketch=0;targetPerimeterSpacing=0;strokeColor=default;jumpStyle=none;exitX=0.5;exitY=0;exitDx=0;exitDy=0;entryX=0;entryY=0.5;entryDx=0;entryDy=0;endFill=0;spacingRight=0;spacing=2;html=1;" parent="1" source="40" target="37" edge="1">
                    <mxGeometry x="-0.0151" y="30" relative="1" as="geometry">
                        <mxPoint x="890" y="435" as="sourcePoint"/>
                        <mxPoint x="997" y="434.5" as="targetPoint"/>
                        <mxPoint as="offset"/>
                    </mxGeometry>
                </mxCell>
                <mxCell id="133" value="1..*" style="edgeLabel;resizable=0;html=1;align=left;verticalAlign=top;" parent="132" connectable="0" vertex="1">
                    <mxGeometry x="-1" relative="1" as="geometry">
                        <mxPoint x="5" y="-30" as="offset"/>
                    </mxGeometry>
                </mxCell>
                <mxCell id="134" value="1" style="edgeLabel;resizable=0;html=1;align=right;verticalAlign=top;rotation=0;" parent="132" connectable="0" vertex="1">
                    <mxGeometry x="1" relative="1" as="geometry">
                        <mxPoint x="-5" y="-30" as="offset"/>
                    </mxGeometry>
                </mxCell>
                <mxCell id="135" value="" style="endArrow=none;endSize=12;startArrow=none;startSize=14;startFill=0;edgeStyle=orthogonalEdgeStyle;sketch=0;targetPerimeterSpacing=0;strokeColor=default;jumpStyle=none;entryX=0;entryY=0.5;entryDx=0;entryDy=0;endFill=0;spacingRight=0;spacing=2;html=1;exitX=1;exitY=0.5;exitDx=0;exitDy=0;" parent="1" source="23" target="41" edge="1">
                    <mxGeometry x="-0.0151" y="30" relative="1" as="geometry">
                        <mxPoint x="610" y="740" as="sourcePoint"/>
                        <mxPoint x="947" y="625" as="targetPoint"/>
                        <mxPoint as="offset"/>
                    </mxGeometry>
                </mxCell>
                <mxCell id="136" value="1" style="edgeLabel;resizable=0;html=1;align=left;verticalAlign=top;" parent="135" connectable="0" vertex="1">
                    <mxGeometry x="-1" relative="1" as="geometry">
                        <mxPoint x="5" y="-30" as="offset"/>
                    </mxGeometry>
                </mxCell>
                <mxCell id="137" value="0..*" style="edgeLabel;resizable=0;html=1;align=right;verticalAlign=top;rotation=0;" parent="135" connectable="0" vertex="1">
                    <mxGeometry x="1" relative="1" as="geometry">
                        <mxPoint x="-5" y="-30" as="offset"/>
                    </mxGeometry>
                </mxCell>
                <mxCell id="139" value="" style="endArrow=none;endSize=12;startArrow=none;startSize=14;startFill=0;edgeStyle=orthogonalEdgeStyle;sketch=0;targetPerimeterSpacing=0;strokeColor=default;jumpStyle=none;exitX=0.5;exitY=0;exitDx=0;exitDy=0;entryX=0.505;entryY=1.003;entryDx=0;entryDy=0;endFill=0;spacingRight=0;spacing=2;html=1;entryPerimeter=0;" parent="1" source="29" target="50" edge="1">
                    <mxGeometry x="-0.0151" y="30" relative="1" as="geometry">
                        <mxPoint x="935" y="620" as="sourcePoint"/>
                        <mxPoint x="1067" y="480" as="targetPoint"/>
                        <mxPoint as="offset"/>
                    </mxGeometry>
                </mxCell>
                <mxCell id="140" value="0..*" style="edgeLabel;resizable=0;html=1;align=left;verticalAlign=top;" parent="139" connectable="0" vertex="1">
                    <mxGeometry x="-1" relative="1" as="geometry">
                        <mxPoint x="8" y="-30" as="offset"/>
                    </mxGeometry>
                </mxCell>
                <mxCell id="141" value="1..*" style="edgeLabel;resizable=0;html=1;align=right;verticalAlign=top;rotation=0;" parent="139" connectable="0" vertex="1">
                    <mxGeometry x="1" relative="1" as="geometry">
                        <mxPoint x="-7" as="offset"/>
                    </mxGeometry>
                </mxCell>
                <mxCell id="143" value="" style="endArrow=none;endSize=12;startArrow=none;startSize=14;startFill=0;edgeStyle=orthogonalEdgeStyle;sketch=0;targetPerimeterSpacing=0;strokeColor=default;jumpStyle=none;entryX=1;entryY=0.25;entryDx=0;entryDy=0;endFill=0;spacingRight=0;spacing=2;html=1;exitX=0;exitY=0.5;exitDx=0;exitDy=0;" parent="1" source="29" target="57" edge="1">
                    <mxGeometry x="-0.0151" y="30" relative="1" as="geometry">
                        <mxPoint x="1410" y="560" as="sourcePoint"/>
                        <mxPoint x="1077" y="490" as="targetPoint"/>
                        <mxPoint as="offset"/>
                        <Array as="points">
                            <mxPoint x="1353" y="655"/>
                            <mxPoint x="1353" y="58"/>
                        </Array>
                    </mxGeometry>
                </mxCell>
                <mxCell id="144" value="1&lt;br&gt;" style="edgeLabel;resizable=0;html=1;align=left;verticalAlign=top;" parent="143" connectable="0" vertex="1">
                    <mxGeometry x="-1" relative="1" as="geometry">
                        <mxPoint x="-20" as="offset"/>
                    </mxGeometry>
                </mxCell>
                <mxCell id="145" value="0..*" style="edgeLabel;resizable=0;html=1;align=right;verticalAlign=top;rotation=0;" parent="143" connectable="0" vertex="1">
                    <mxGeometry x="1" relative="1" as="geometry">
                        <mxPoint x="26" y="-27" as="offset"/>
                    </mxGeometry>
                </mxCell>
                <mxCell id="150" value="" style="endArrow=none;endSize=12;startArrow=none;startSize=14;startFill=0;edgeStyle=orthogonalEdgeStyle;sketch=0;targetPerimeterSpacing=0;strokeColor=default;jumpStyle=none;entryX=0.5;entryY=1;entryDx=0;entryDy=0;endFill=0;spacingRight=0;spacing=2;html=1;exitX=0.5;exitY=0;exitDx=0;exitDy=0;" parent="1" source="42" target="29" edge="1">
                    <mxGeometry x="-0.0151" y="30" relative="1" as="geometry">
                        <mxPoint x="1420" y="675" as="sourcePoint"/>
                        <mxPoint x="1306" y="650" as="targetPoint"/>
                        <mxPoint as="offset"/>
                    </mxGeometry>
                </mxCell>
                <mxCell id="151" value="0..*" style="edgeLabel;resizable=0;html=1;align=left;verticalAlign=top;" parent="150" connectable="0" vertex="1">
                    <mxGeometry x="-1" relative="1" as="geometry">
                        <mxPoint x="-20" y="-30" as="offset"/>
                    </mxGeometry>
                </mxCell>
                <mxCell id="152" value="1" style="edgeLabel;resizable=0;html=1;align=right;verticalAlign=top;rotation=0;" parent="150" connectable="0" vertex="1">
                    <mxGeometry x="1" relative="1" as="geometry">
                        <mxPoint x="-7" as="offset"/>
                    </mxGeometry>
                </mxCell>
                <mxCell id="153" value="" style="endArrow=none;endSize=12;startArrow=none;startSize=14;startFill=0;edgeStyle=orthogonalEdgeStyle;sketch=0;targetPerimeterSpacing=0;strokeColor=default;jumpStyle=none;endFill=0;spacingRight=0;spacing=2;html=1;exitX=1;exitY=0;exitDx=0;exitDy=0;entryX=0.25;entryY=0;entryDx=0;entryDy=0;" parent="1" source="57" target="49" edge="1">
                    <mxGeometry x="-0.0151" y="30" relative="1" as="geometry">
                        <mxPoint x="1251" y="540" as="sourcePoint"/>
                        <mxPoint x="1157" y="400" as="targetPoint"/>
                        <mxPoint as="offset"/>
                    </mxGeometry>
                </mxCell>
                <mxCell id="154" value="0..*&lt;br&gt;" style="edgeLabel;resizable=0;html=1;align=left;verticalAlign=top;" parent="153" connectable="0" vertex="1">
                    <mxGeometry x="-1" relative="1" as="geometry">
                        <mxPoint x="17" y="-32" as="offset"/>
                    </mxGeometry>
                </mxCell>
                <mxCell id="155" value="1" style="edgeLabel;resizable=0;html=1;align=right;verticalAlign=top;rotation=0;" parent="153" connectable="0" vertex="1">
                    <mxGeometry x="1" relative="1" as="geometry">
                        <mxPoint x="-5" y="-30" as="offset"/>
                    </mxGeometry>
                </mxCell>
                <mxCell id="156" value="" style="endArrow=none;endSize=12;startArrow=none;startSize=14;startFill=0;edgeStyle=orthogonalEdgeStyle;sketch=0;targetPerimeterSpacing=0;strokeColor=default;jumpStyle=none;entryX=0.75;entryY=0;entryDx=0;entryDy=0;endFill=0;spacingRight=0;spacing=2;html=1;exitX=0.75;exitY=1;exitDx=0;exitDy=0;" parent="1" source="42" target="44" edge="1">
                    <mxGeometry x="-0.0151" y="30" relative="1" as="geometry">
                        <mxPoint x="1420" y="840" as="sourcePoint"/>
                        <mxPoint x="1480" y="710" as="targetPoint"/>
                        <mxPoint as="offset"/>
                    </mxGeometry>
                </mxCell>
                <mxCell id="157" value="1..*&lt;br&gt;" style="edgeLabel;resizable=0;html=1;align=left;verticalAlign=top;" parent="156" connectable="0" vertex="1">
                    <mxGeometry x="-1" relative="1" as="geometry">
                        <mxPoint x="-27" as="offset"/>
                    </mxGeometry>
                </mxCell>
                <mxCell id="158" value="1" style="edgeLabel;resizable=0;html=1;align=right;verticalAlign=top;rotation=0;" parent="156" connectable="0" vertex="1">
                    <mxGeometry x="1" relative="1" as="geometry">
                        <mxPoint x="17" y="-31" as="offset"/>
                    </mxGeometry>
                </mxCell>
                <mxCell id="159" value="" style="endArrow=none;endSize=12;startArrow=none;startSize=14;startFill=0;edgeStyle=orthogonalEdgeStyle;sketch=0;targetPerimeterSpacing=0;strokeColor=default;jumpStyle=none;entryX=0.5;entryY=1;entryDx=0;entryDy=0;endFill=0;spacingRight=0;spacing=2;html=1;exitX=1;exitY=0.5;exitDx=0;exitDy=0;" parent="1" source="59" target="44" edge="1">
                    <mxGeometry x="-0.0151" y="30" relative="1" as="geometry">
                        <mxPoint x="1580" y="850" as="sourcePoint"/>
                        <mxPoint x="1490" y="720" as="targetPoint"/>
                        <mxPoint as="offset"/>
                    </mxGeometry>
                </mxCell>
                <mxCell id="160" value="0..*" style="edgeLabel;resizable=0;html=1;align=left;verticalAlign=top;" parent="159" connectable="0" vertex="1">
                    <mxGeometry x="-1" relative="1" as="geometry">
                        <mxPoint x="15" y="-30" as="offset"/>
                    </mxGeometry>
                </mxCell>
                <mxCell id="161" value="1" style="edgeLabel;resizable=0;html=1;align=right;verticalAlign=top;rotation=0;" parent="159" connectable="0" vertex="1">
                    <mxGeometry x="1" relative="1" as="geometry">
                        <mxPoint x="-7" as="offset"/>
                    </mxGeometry>
                </mxCell>
                <mxCell id="165" value="" style="endArrow=none;endSize=12;startArrow=none;startSize=14;startFill=0;edgeStyle=orthogonalEdgeStyle;sketch=0;targetPerimeterSpacing=0;strokeColor=default;jumpStyle=none;endFill=0;spacingRight=0;spacing=2;html=1;exitX=1;exitY=0.5;exitDx=0;exitDy=0;entryX=1;entryY=0.5;entryDx=0;entryDy=0;" parent="1" source="42" target="49" edge="1">
                    <mxGeometry x="-0.0151" y="30" relative="1" as="geometry">
                        <mxPoint x="1296" y="540" as="sourcePoint"/>
                        <mxPoint x="1415" y="424.5" as="targetPoint"/>
                        <mxPoint as="offset"/>
                        <Array as="points">
                            <mxPoint x="1790" y="870"/>
                            <mxPoint x="1790" y="400"/>
                        </Array>
                    </mxGeometry>
                </mxCell>
                <mxCell id="166" value="0..*&lt;br&gt;" style="edgeLabel;resizable=0;html=1;align=left;verticalAlign=top;" parent="165" connectable="0" vertex="1">
                    <mxGeometry x="-1" relative="1" as="geometry">
                        <mxPoint x="10" y="-20" as="offset"/>
                    </mxGeometry>
                </mxCell>
                <mxCell id="167" value="1" style="edgeLabel;resizable=0;html=1;align=right;verticalAlign=top;rotation=0;" parent="165" connectable="0" vertex="1">
                    <mxGeometry x="1" relative="1" as="geometry">
                        <mxPoint x="15" as="offset"/>
                    </mxGeometry>
                </mxCell>
                <mxCell id="RtV7ilFXeOjnN-bV-1fG-174" value="&lt;span data-lucid-type=&quot;application/vnd.lucid.text&quot; data-lucid-content=&quot;{&amp;#34;t&amp;#34;:&amp;#34;&amp;lt;&amp;lt;Enum&amp;gt;&amp;gt;\nTipoRecurso (varchar(30))&amp;#34;,&amp;#34;m&amp;#34;:[{&amp;#34;s&amp;#34;:0,&amp;#34;n&amp;#34;:&amp;#34;b&amp;#34;,&amp;#34;v&amp;#34;:true,&amp;#34;e&amp;#34;:34},{&amp;#34;s&amp;#34;:0,&amp;#34;n&amp;#34;:&amp;#34;s&amp;#34;,&amp;#34;v&amp;#34;:22.44444444444444,&amp;#34;e&amp;#34;:34}]}&quot;&gt;&lt;span style=&quot;font-size: 16.8333px&quot;&gt;&amp;lt;&amp;lt;Enum&amp;gt;&amp;gt;&lt;br&gt;&lt;/span&gt;&lt;span style=&quot;font-size: 16.8333px&quot;&gt;TipoRecurso (varchar(30))&lt;/span&gt;&lt;/span&gt;" style="swimlane;fontStyle=1;align=center;verticalAlign=middle;childLayout=stackLayout;horizontal=1;startSize=50;horizontalStack=0;resizeParent=1;resizeParentMax=0;resizeLast=0;collapsible=0;marginBottom=0;html=1;fillColor=#647687;strokeColor=#314354;strokeWidth=2;fontColor=#FFE6CC;" parent="1" vertex="1">
                    <mxGeometry x="-60" y="-280" width="270" height="160" as="geometry"/>
                </mxCell>
                <mxCell id="RtV7ilFXeOjnN-bV-1fG-175" value="&lt;font style=&quot;font-size: 13px&quot;&gt;&lt;span data-lucid-type=&quot;application/vnd.lucid.text&quot; data-lucid-content=&quot;{&amp;quot;t&amp;quot;:&amp;quot;mao_de_obra\nequipamento\nposto_de_trabalho\noutros&amp;quot;,&amp;quot;m&amp;quot;:[{&amp;quot;s&amp;quot;:0,&amp;quot;n&amp;quot;:&amp;quot;c&amp;quot;,&amp;quot;v&amp;quot;:&amp;quot;#000000ff&amp;quot;,&amp;quot;e&amp;quot;:48},{&amp;quot;s&amp;quot;:0,&amp;quot;n&amp;quot;:&amp;quot;s&amp;quot;,&amp;quot;v&amp;quot;:20.444444444444443,&amp;quot;e&amp;quot;:48}]}&quot; style=&quot;font-size: 13px;&quot;&gt;&lt;span style=&quot;font-size: 13px;&quot;&gt;mao_de_obra&lt;br style=&quot;font-size: 13px;&quot;&gt;&lt;/span&gt;&lt;span style=&quot;font-size: 13px;&quot;&gt;equipamento&lt;br style=&quot;font-size: 13px;&quot;&gt;&lt;/span&gt;&lt;span style=&quot;font-size: 13px;&quot;&gt;posto_de_trabalho&lt;br style=&quot;font-size: 13px;&quot;&gt;&lt;/span&gt;&lt;span style=&quot;font-size: 13px;&quot;&gt;outros&lt;/span&gt;&lt;/span&gt;&lt;br style=&quot;font-size: 13px;&quot;&gt;&lt;/font&gt;" style="text;html=1;align=left;verticalAlign=middle;spacingLeft=4;spacingRight=4;overflow=hidden;rotatable=0;points=[[0,0.5],[1,0.5]];portConstraint=eastwest;fillColor=#647687;strokeColor=#314354;strokeWidth=2;fontColor=#FFE6CC;fontSize=13;" parent="RtV7ilFXeOjnN-bV-1fG-174" vertex="1">
                    <mxGeometry y="50" width="270" height="110" as="geometry"/>
                </mxCell>
                <mxCell id="RtV7ilFXeOjnN-bV-1fG-176" value="&#10;&#10;&lt;span data-lucid-type=&quot;application/vnd.lucid.text&quot; data-lucid-content=&quot;{&amp;quot;t&amp;quot;:&amp;quot;&lt;&lt;Enum&gt;&gt;\nTipoRestricao (varchar(30))&amp;quot;,&amp;quot;m&amp;quot;:[{&amp;quot;s&amp;quot;:0,&amp;quot;n&amp;quot;:&amp;quot;b&amp;quot;,&amp;quot;v&amp;quot;:true,&amp;quot;e&amp;quot;:36},{&amp;quot;s&amp;quot;:0,&amp;quot;n&amp;quot;:&amp;quot;s&amp;quot;,&amp;quot;v&amp;quot;:22.44444444444444,&amp;quot;e&amp;quot;:36}]}&quot;&gt;&lt;span style=&quot;font-weight: bold ; font-size: 16.83333333333333px&quot;&gt;&amp;lt;&amp;lt;Enum&amp;gt;&amp;gt;&lt;br&gt;&lt;/span&gt;&lt;span style=&quot;font-weight: bold ; font-size: 16.83333333333333px&quot;&gt;TipoRestricao (varchar(30))&lt;/span&gt;&lt;/span&gt;&#10;&#10;" style="swimlane;fontStyle=1;align=center;verticalAlign=middle;childLayout=stackLayout;horizontal=1;startSize=50;horizontalStack=0;resizeParent=1;resizeParentMax=0;resizeLast=0;collapsible=0;marginBottom=0;html=1;fillColor=#647687;strokeColor=#314354;strokeWidth=2;fontColor=#FFE6CC;" parent="1" vertex="1">
                    <mxGeometry x="500" y="-290" width="270" height="170" as="geometry"/>
                </mxCell>
                <mxCell id="RtV7ilFXeOjnN-bV-1fG-177" value="&lt;font style=&quot;font-size: 13px&quot;&gt;&lt;span data-lucid-type=&quot;application/vnd.lucid.text&quot; data-lucid-content=&quot;{&amp;quot;t&amp;quot;:&amp;quot;mao_de_obra\nequipamento\nferramenta\ncomponentes\noutros&amp;quot;,&amp;quot;m&amp;quot;:[{&amp;quot;s&amp;quot;:0,&amp;quot;n&amp;quot;:&amp;quot;c&amp;quot;,&amp;quot;v&amp;quot;:&amp;quot;#000000ff&amp;quot;,&amp;quot;e&amp;quot;:53},{&amp;quot;s&amp;quot;:0,&amp;quot;n&amp;quot;:&amp;quot;s&amp;quot;,&amp;quot;v&amp;quot;:20.444444444444443,&amp;quot;e&amp;quot;:53}]}&quot; style=&quot;font-size: 13px;&quot;&gt;&lt;span style=&quot;font-size: 13px;&quot;&gt;mao_de_obra&lt;br style=&quot;font-size: 13px;&quot;&gt;&lt;/span&gt;&lt;span style=&quot;font-size: 13px;&quot;&gt;equipamento&lt;br style=&quot;font-size: 13px;&quot;&gt;&lt;/span&gt;&lt;span style=&quot;font-size: 13px;&quot;&gt;ferramenta&lt;br style=&quot;font-size: 13px;&quot;&gt;&lt;/span&gt;&lt;span style=&quot;font-size: 13px;&quot;&gt;componentes&lt;br style=&quot;font-size: 13px;&quot;&gt;&lt;/span&gt;&lt;span style=&quot;font-size: 13px;&quot;&gt;outros&lt;/span&gt;&lt;/span&gt;&lt;br style=&quot;font-size: 13px;&quot;&gt;&lt;/font&gt;" style="text;html=1;align=left;verticalAlign=middle;spacingLeft=4;spacingRight=4;overflow=hidden;rotatable=0;points=[[0,0.5],[1,0.5]];portConstraint=eastwest;fillColor=#647687;strokeColor=#314354;strokeWidth=2;fontColor=#FFE6CC;fontSize=13;" parent="RtV7ilFXeOjnN-bV-1fG-176" vertex="1">
                    <mxGeometry y="50" width="270" height="120" as="geometry"/>
                </mxCell>
                <mxCell id="RtV7ilFXeOjnN-bV-1fG-178" value="&lt;span data-lucid-type=&quot;application/vnd.lucid.text&quot; data-lucid-content=&quot;{&amp;#34;t&amp;#34;:&amp;#34;&amp;lt;&amp;lt;Enum&amp;gt;&amp;gt;\nTipoMomento (varchar(60))&amp;#34;,&amp;#34;m&amp;#34;:[{&amp;#34;s&amp;#34;:0,&amp;#34;n&amp;#34;:&amp;#34;b&amp;#34;,&amp;#34;v&amp;#34;:true,&amp;#34;e&amp;#34;:34},{&amp;#34;s&amp;#34;:0,&amp;#34;n&amp;#34;:&amp;#34;s&amp;#34;,&amp;#34;v&amp;#34;:22.44444444444444,&amp;#34;e&amp;#34;:34}]}&quot;&gt;&lt;span style=&quot;font-size: 16.8333px&quot;&gt;&amp;lt;&amp;lt;Enum&amp;gt;&amp;gt;&lt;br&gt;&lt;/span&gt;&lt;span style=&quot;font-size: 16.8333px&quot;&gt;TipoMomento (varchar(60))&lt;/span&gt;&lt;/span&gt;" style="swimlane;fontStyle=1;align=center;verticalAlign=middle;childLayout=stackLayout;horizontal=1;startSize=50;horizontalStack=0;resizeParent=1;resizeParentMax=0;resizeLast=0;collapsible=0;marginBottom=0;html=1;fillColor=#647687;strokeColor=#314354;strokeWidth=2;fontColor=#FFE6CC;" parent="1" vertex="1">
                    <mxGeometry x="-372" y="-288" width="270" height="260" as="geometry"/>
                </mxCell>
                <mxCell id="RtV7ilFXeOjnN-bV-1fG-179" value="&lt;font style=&quot;font-size: 13px&quot;&gt;&lt;span data-lucid-type=&quot;application/vnd.lucid.text&quot; data-lucid-content=&quot;{&amp;#34;t&amp;#34;:&amp;#34;nao_afeta\ndurante_todo_o_setup\ndurante_toda_a_execucao\ndurante_toda_a_operacao\ntempo_apos_o_inicio_setup\ntempo_apos_o_inicio_da_execucao\ntempo_proximo_ao_fim_do_setup\ntempo_proximo_ao_fim_da_execucao\ntempo_apos_o_fim_do_setup\ntempo_apos_o_fim_da_execucao\ntempo_antes_do_inicio_do_setup\ntempo_antes_do_inicio_da_execucao&amp;#34;,&amp;#34;m&amp;#34;:[{&amp;#34;s&amp;#34;:0,&amp;#34;n&amp;#34;:&amp;#34;s&amp;#34;,&amp;#34;v&amp;#34;:20.444444444444443,&amp;#34;e&amp;#34;:319},{&amp;#34;s&amp;#34;:0,&amp;#34;n&amp;#34;:&amp;#34;c&amp;#34;,&amp;#34;v&amp;#34;:&amp;#34;#000000ff&amp;#34;,&amp;#34;e&amp;#34;:319}]}&quot;&gt;nao_afeta&lt;br&gt;durante_todo_o_setup&lt;br&gt;durante_toda_a_execucao&lt;br&gt;durante_toda_a_operacao&lt;br&gt;tempo_apos_o_inicio_setup&lt;br&gt;tempo_apos_o_inicio_da_execucao&lt;br&gt;tempo_proximo_ao_fim_do_setup&lt;br&gt;tempo_proximo_ao_fim_da_execucao&lt;br&gt;tempo_apos_o_fim_do_setup&lt;br&gt;tempo_apos_o_fim_da_execucao&lt;br&gt;tempo_antes_do_inicio_do_setup&lt;br&gt;tempo_antes_do_inicio_da_execucao&lt;/span&gt;&lt;br&gt;&lt;/font&gt;" style="text;html=1;align=left;verticalAlign=middle;spacingLeft=4;spacingRight=4;overflow=hidden;rotatable=0;points=[[0,0.5],[1,0.5]];portConstraint=eastwest;fillColor=#647687;strokeColor=#314354;strokeWidth=2;fontColor=#FFE6CC;" parent="RtV7ilFXeOjnN-bV-1fG-178" vertex="1">
                    <mxGeometry y="50" width="270" height="210" as="geometry"/>
                </mxCell>
                <mxCell id="RtV7ilFXeOjnN-bV-1fG-181" value="&lt;span data-lucid-type=&quot;application/vnd.lucid.text&quot; data-lucid-content=&quot;{&amp;#34;t&amp;#34;:&amp;#34;&amp;lt;&amp;lt;Enum&amp;gt;&amp;gt;\nTipoInterrucao (varchar(30))&amp;#34;,&amp;#34;m&amp;#34;:[{&amp;#34;s&amp;#34;:0,&amp;#34;n&amp;#34;:&amp;#34;b&amp;#34;,&amp;#34;v&amp;#34;:true,&amp;#34;e&amp;#34;:37},{&amp;#34;s&amp;#34;:0,&amp;#34;n&amp;#34;:&amp;#34;s&amp;#34;,&amp;#34;v&amp;#34;:22.44444444444444,&amp;#34;e&amp;#34;:37}]}&quot;&gt;&lt;span style=&quot;font-weight: bold ; font-size: 16.83333333333333px&quot;&gt;&amp;lt;&amp;lt;Enum&amp;gt;&amp;gt;&lt;br&gt;&lt;/span&gt;&lt;span style=&quot;font-size: 16.8333px&quot;&gt;TipoInterrupcao (varchar(30))&amp;nbsp;&lt;/span&gt;&lt;/span&gt;" style="swimlane;fontStyle=1;align=center;verticalAlign=middle;childLayout=stackLayout;horizontal=1;startSize=70;horizontalStack=0;resizeParent=1;resizeParentMax=0;resizeLast=0;collapsible=0;marginBottom=0;html=1;fillColor=#647687;strokeColor=#314354;strokeWidth=2;fontColor=#FFE6CC;" parent="1" vertex="1">
                    <mxGeometry x="-372" y="-470" width="270" height="160" as="geometry"/>
                </mxCell>
                <mxCell id="RtV7ilFXeOjnN-bV-1fG-182" value="&lt;font style=&quot;font-size: 13px&quot;&gt;&lt;span data-lucid-type=&quot;application/vnd.lucid.text&quot; data-lucid-content=&quot;{&amp;#34;t&amp;#34;:&amp;#34;manutencao\nfim_servico\ntransferencia\noutros\n\n&amp;#34;,&amp;#34;m&amp;#34;:[{&amp;#34;s&amp;#34;:0,&amp;#34;n&amp;#34;:&amp;#34;s&amp;#34;,&amp;#34;v&amp;#34;:20.444444444444443,&amp;#34;e&amp;#34;:45},{&amp;#34;s&amp;#34;:0,&amp;#34;n&amp;#34;:&amp;#34;c&amp;#34;,&amp;#34;v&amp;#34;:&amp;#34;#000000ff&amp;#34;,&amp;#34;e&amp;#34;:45}]}&quot; style=&quot;font-size: 13px&quot;&gt;&lt;span style=&quot;font-size: 13px&quot;&gt;manutencao&lt;br style=&quot;font-size: 13px&quot;&gt;&lt;/span&gt;&lt;span style=&quot;font-size: 13px&quot;&gt;fim_servico&lt;br style=&quot;font-size: 13px&quot;&gt;&lt;/span&gt;&lt;span style=&quot;font-size: 13px&quot;&gt;transferencia&lt;br&gt;acrescimo&lt;br style=&quot;font-size: 13px&quot;&gt;&lt;/span&gt;&lt;span style=&quot;font-size: 13px&quot;&gt;outros&lt;br style=&quot;font-size: 13px&quot;&gt;&lt;/span&gt;&lt;span style=&quot;font-size: 13px&quot;&gt;&lt;br style=&quot;font-size: 13px&quot;&gt;&lt;/span&gt;&lt;/span&gt;&lt;/font&gt;" style="text;html=1;align=left;verticalAlign=middle;spacingLeft=4;spacingRight=4;overflow=hidden;rotatable=0;points=[[0,0.5],[1,0.5]];portConstraint=eastwest;fillColor=#647687;strokeColor=#314354;strokeWidth=2;fontColor=#FFE6CC;fontSize=13;" parent="RtV7ilFXeOjnN-bV-1fG-181" vertex="1">
                    <mxGeometry y="70" width="270" height="90" as="geometry"/>
                </mxCell>
                <mxCell id="RtV7ilFXeOjnN-bV-1fG-183" value="&lt;span data-lucid-type=&quot;application/vnd.lucid.text&quot; data-lucid-content=&quot;{&amp;#34;t&amp;#34;:&amp;#34;&amp;lt;&amp;lt;Enum&amp;gt;&amp;gt;\nTipoMaterialResultado (varchar(30))&amp;#34;,&amp;#34;m&amp;#34;:[{&amp;#34;s&amp;#34;:0,&amp;#34;n&amp;#34;:&amp;#34;b&amp;#34;,&amp;#34;v&amp;#34;:true,&amp;#34;e&amp;#34;:44},{&amp;#34;s&amp;#34;:0,&amp;#34;n&amp;#34;:&amp;#34;s&amp;#34;,&amp;#34;v&amp;#34;:22.44444444444444,&amp;#34;e&amp;#34;:44}]}&quot;&gt;&lt;span style=&quot;font-weight: bold ; font-size: 16.83333333333333px&quot;&gt;&amp;lt;&amp;lt;Enum&amp;gt;&amp;gt;&lt;br&gt;&lt;/span&gt;&lt;span style=&quot;font-size: 16.8333px&quot;&gt;TipoMovimento(varchar(30))&amp;nbsp;&lt;/span&gt;&lt;/span&gt;" style="swimlane;fontStyle=1;align=center;verticalAlign=middle;childLayout=stackLayout;horizontal=1;startSize=50;horizontalStack=0;resizeParent=1;resizeParentMax=0;resizeLast=0;collapsible=0;marginBottom=0;html=1;fillColor=#647687;strokeColor=#314354;strokeWidth=2;fontColor=#FFE6CC;" parent="1" vertex="1">
                    <mxGeometry x="790" y="-300" width="299" height="193" as="geometry"/>
                </mxCell>
                <mxCell id="RtV7ilFXeOjnN-bV-1fG-184" value="&lt;font style=&quot;font-size: 13px&quot;&gt;&lt;br style=&quot;font-size: 13px&quot;&gt;&lt;div style=&quot;font-size: 13px&quot;&gt;&lt;span style=&quot;font-size: 13px&quot;&gt;baixa_insumo&lt;/span&gt;&lt;/div&gt;&lt;div style=&quot;font-size: 13px&quot;&gt;&lt;span style=&quot;font-size: 13px&quot;&gt;produto_acabado&lt;/span&gt;&lt;/div&gt;&lt;div style=&quot;font-size: 13px&quot;&gt;&lt;span style=&quot;font-size: 13px&quot;&gt;perda&lt;/span&gt;&lt;/div&gt;&lt;div style=&quot;font-size: 13px&quot;&gt;&lt;span style=&quot;font-size: 13px&quot;&gt;sobra&lt;/span&gt;&lt;/div&gt;&lt;div style=&quot;font-size: 13px&quot;&gt;&lt;span style=&quot;font-size: 13px&quot;&gt;sucata&lt;/span&gt;&amp;nbsp;&amp;nbsp;&lt;/div&gt;&lt;div style=&quot;font-size: 13px&quot;&gt;&lt;br style=&quot;font-size: 13px&quot;&gt;&lt;/div&gt;&lt;/font&gt;" style="text;html=1;align=left;verticalAlign=middle;spacingLeft=4;spacingRight=4;overflow=hidden;rotatable=0;points=[[0,0.5],[1,0.5]];portConstraint=eastwest;fillColor=#647687;strokeColor=#314354;strokeWidth=2;fontColor=#FFE6CC;fontSize=13;fontFamily=Helvetica;" parent="RtV7ilFXeOjnN-bV-1fG-183" vertex="1">
                    <mxGeometry y="50" width="299" height="143" as="geometry"/>
                </mxCell>
                <mxCell id="176" value="" style="endArrow=none;endSize=12;startArrow=none;startSize=14;startFill=0;sketch=0;targetPerimeterSpacing=0;strokeColor=default;jumpStyle=none;entryX=1;entryY=0.5;entryDx=0;entryDy=0;endFill=0;spacingRight=0;spacing=2;html=1;exitX=0;exitY=0.5;exitDx=0;exitDy=0;edgeStyle=orthogonalEdgeStyle;" parent="1" source="23" target="200" edge="1">
                    <mxGeometry relative="1" as="geometry">
                        <mxPoint x="400.0000000000002" y="425.0000000000002" as="sourcePoint"/>
                        <mxPoint x="165" y="580" as="targetPoint"/>
                    </mxGeometry>
                </mxCell>
                <mxCell id="177" value="0..*" style="edgeLabel;resizable=0;html=1;align=left;verticalAlign=top;" parent="176" connectable="0" vertex="1">
                    <mxGeometry x="-1" relative="1" as="geometry">
                        <mxPoint x="-50" as="offset"/>
                    </mxGeometry>
                </mxCell>
                <mxCell id="178" value="1" style="edgeLabel;resizable=0;html=1;align=right;verticalAlign=top;rotation=0;" parent="176" connectable="0" vertex="1">
                    <mxGeometry x="1" relative="1" as="geometry">
                        <mxPoint x="27" y="-26" as="offset"/>
                    </mxGeometry>
                </mxCell>
                <mxCell id="179" value="" style="endArrow=none;endSize=12;startArrow=none;startSize=14;startFill=0;edgeStyle=orthogonalEdgeStyle;sketch=0;targetPerimeterSpacing=0;strokeColor=default;jumpStyle=none;exitX=0;exitY=0.5;exitDx=0;exitDy=0;entryX=0.5;entryY=0;entryDx=0;entryDy=0;endFill=0;spacingRight=0;spacing=2;html=1;" parent="1" source="58" target="33" edge="1">
                    <mxGeometry x="-0.0151" y="30" relative="1" as="geometry">
                        <mxPoint x="870" y="415" as="sourcePoint"/>
                        <mxPoint x="976.9999999999995" y="414.5" as="targetPoint"/>
                        <mxPoint as="offset"/>
                    </mxGeometry>
                </mxCell>
                <mxCell id="180" value="1..*" style="edgeLabel;resizable=0;html=1;align=left;verticalAlign=top;" parent="179" connectable="0" vertex="1">
                    <mxGeometry x="-1" relative="1" as="geometry">
                        <mxPoint x="-24" y="1" as="offset"/>
                    </mxGeometry>
                </mxCell>
                <mxCell id="181" value="1" style="edgeLabel;resizable=0;html=1;align=right;verticalAlign=top;rotation=0;" parent="179" connectable="0" vertex="1">
                    <mxGeometry x="1" relative="1" as="geometry">
                        <mxPoint x="-5" y="-30" as="offset"/>
                    </mxGeometry>
                </mxCell>
                <mxCell id="182" value="" style="endArrow=none;endSize=12;startArrow=none;startSize=14;startFill=0;edgeStyle=orthogonalEdgeStyle;sketch=0;targetPerimeterSpacing=0;strokeColor=default;jumpStyle=none;exitX=1;exitY=0.5;exitDx=0;exitDy=0;entryX=0.25;entryY=0;entryDx=0;entryDy=0;endFill=0;spacingRight=0;spacing=2;html=1;" parent="1" source="11" target="33" edge="1">
                    <mxGeometry x="-0.0151" y="30" relative="1" as="geometry">
                        <mxPoint x="707.5" y="239.99999999999977" as="sourcePoint"/>
                        <mxPoint x="715" y="305.0000000000002" as="targetPoint"/>
                        <mxPoint as="offset"/>
                    </mxGeometry>
                </mxCell>
                <mxCell id="183" value="0..*" style="edgeLabel;resizable=0;html=1;align=left;verticalAlign=top;" parent="182" connectable="0" vertex="1">
                    <mxGeometry x="-1" relative="1" as="geometry"/>
                </mxCell>
                <mxCell id="184" value="0..*" style="edgeLabel;resizable=0;html=1;align=right;verticalAlign=top;rotation=0;" parent="182" connectable="0" vertex="1">
                    <mxGeometry x="1" relative="1" as="geometry">
                        <mxPoint x="-5" y="-30" as="offset"/>
                    </mxGeometry>
                </mxCell>
                <mxCell id="189" value="Ordem de Produção" style="swimlane;fontStyle=1;align=center;verticalAlign=middle;childLayout=stackLayout;horizontal=1;startSize=29;horizontalStack=0;resizeParent=1;resizeParentMax=0;resizeLast=0;collapsible=0;marginBottom=0;html=1;fillColor=#647687;strokeColor=#314354;strokeWidth=2;fontColor=#FFE6CC;" parent="1" vertex="1">
                    <mxGeometry x="1169.5" y="1408" width="191" height="167" as="geometry"/>
                </mxCell>
                <mxCell id="190" value="&lt;font style=&quot;font-size: 13px&quot;&gt;codigo : varchar(30)&lt;br&gt;descricao: varchar(60)&lt;br&gt;&lt;br&gt;inicio_planejado: datetime&lt;br&gt;termino_planejado: datetime&amp;nbsp;&lt;br&gt;inicio_executado: datetime&lt;br&gt;termino_executado: datetime&lt;br&gt;quantidade: double&lt;br&gt;&lt;br&gt;&lt;br&gt;&lt;/font&gt;" style="text;html=1;align=left;verticalAlign=middle;spacingLeft=4;spacingRight=4;overflow=hidden;rotatable=0;points=[[0,0.5],[1,0.5]];portConstraint=eastwest;fillColor=#647687;strokeColor=#314354;strokeWidth=2;fontColor=#FFE6CC;" parent="189" vertex="1">
                    <mxGeometry y="29" width="191" height="138" as="geometry"/>
                </mxCell>
                <mxCell id="192" value="" style="endArrow=none;endSize=12;startArrow=none;startSize=14;startFill=0;edgeStyle=orthogonalEdgeStyle;sketch=0;targetPerimeterSpacing=0;strokeColor=default;jumpStyle=none;endFill=0;spacingRight=0;spacing=2;html=1;entryX=0.5;entryY=0;entryDx=0;entryDy=0;exitX=0.5;exitY=1;exitDx=0;exitDy=0;" parent="1" source="59" target="189" edge="1">
                    <mxGeometry x="-0.0151" y="30" relative="1" as="geometry">
                        <mxPoint x="1205" y="1225" as="sourcePoint"/>
                        <mxPoint x="1062" y="1130" as="targetPoint"/>
                        <mxPoint as="offset"/>
                    </mxGeometry>
                </mxCell>
                <mxCell id="193" value="1" style="edgeLabel;resizable=0;html=1;align=left;verticalAlign=top;" parent="192" connectable="0" vertex="1">
                    <mxGeometry x="-1" relative="1" as="geometry">
                        <mxPoint x="-24" y="-1" as="offset"/>
                    </mxGeometry>
                </mxCell>
                <mxCell id="194" value="0..*" style="edgeLabel;resizable=0;html=1;align=right;verticalAlign=top;rotation=0;" parent="192" connectable="0" vertex="1">
                    <mxGeometry x="1" relative="1" as="geometry">
                        <mxPoint x="26" y="-24" as="offset"/>
                    </mxGeometry>
                </mxCell>
                <mxCell id="195" value="Ordem de Producao Itens" style="swimlane;fontStyle=1;align=center;verticalAlign=middle;childLayout=stackLayout;horizontal=1;startSize=29;horizontalStack=0;resizeParent=1;resizeParentMax=0;resizeLast=0;collapsible=0;marginBottom=0;html=1;fillColor=#647687;strokeColor=#314354;strokeWidth=2;fontColor=#FFE6CC;" parent="1" vertex="1">
                    <mxGeometry x="1514" y="1411" width="191" height="167" as="geometry"/>
                </mxCell>
                <mxCell id="196" value="&lt;font style=&quot;font-size: 13px&quot;&gt;codigo : varchar(30)&lt;br&gt;descricao: varchar(60)&lt;br&gt;&lt;br&gt;inicio_planejado: datetime&lt;br&gt;termino_planejado: datetime&amp;nbsp;&lt;br&gt;inicio_executado: datetime&lt;br&gt;termino_executado: datetime&lt;br&gt;quantidade: double&lt;br&gt;&lt;br&gt;&lt;br&gt;&lt;/font&gt;" style="text;html=1;align=left;verticalAlign=middle;spacingLeft=4;spacingRight=4;overflow=hidden;rotatable=0;points=[[0,0.5],[1,0.5]];portConstraint=eastwest;fillColor=#647687;strokeColor=#314354;strokeWidth=2;fontColor=#FFE6CC;" parent="195" vertex="1">
                    <mxGeometry y="29" width="191" height="138" as="geometry"/>
                </mxCell>
                <mxCell id="197" value="" style="endArrow=none;endSize=12;startArrow=none;startSize=14;startFill=0;edgeStyle=orthogonalEdgeStyle;sketch=0;targetPerimeterSpacing=0;strokeColor=default;jumpStyle=none;endFill=0;spacingRight=0;spacing=2;html=1;entryX=1;entryY=0.75;entryDx=0;entryDy=0;exitX=0;exitY=0.25;exitDx=0;exitDy=0;" parent="1" source="195" target="189" edge="1">
                    <mxGeometry x="-0.0151" y="30" relative="1" as="geometry">
                        <mxPoint x="1275" y="1250" as="sourcePoint"/>
                        <mxPoint x="1275" y="1418" as="targetPoint"/>
                        <mxPoint as="offset"/>
                    </mxGeometry>
                </mxCell>
                <mxCell id="198" value="1" style="edgeLabel;resizable=0;html=1;align=left;verticalAlign=top;" parent="197" connectable="0" vertex="1">
                    <mxGeometry x="-1" relative="1" as="geometry">
                        <mxPoint x="-24" y="-1" as="offset"/>
                    </mxGeometry>
                </mxCell>
                <mxCell id="199" value="0..*" style="edgeLabel;resizable=0;html=1;align=right;verticalAlign=top;rotation=0;" parent="197" connectable="0" vertex="1">
                    <mxGeometry x="1" relative="1" as="geometry">
                        <mxPoint x="26" y="-24" as="offset"/>
                    </mxGeometry>
                </mxCell>
                <mxCell id="200" value="Turno" style="swimlane;fontStyle=1;align=center;verticalAlign=middle;childLayout=stackLayout;horizontal=1;startSize=29;horizontalStack=0;resizeParent=1;resizeParentMax=0;resizeLast=0;collapsible=0;marginBottom=0;html=1;fillColor=#647687;strokeColor=#314354;strokeWidth=2;fontColor=#FFE6CC;" parent="1" vertex="1">
                    <mxGeometry x="-22" y="602" width="180" height="120" as="geometry"/>
                </mxCell>
                <mxCell id="201" value="&lt;font style=&quot;font-size: 13px&quot;&gt;codigo: varchar(30)&lt;br&gt;descricao: varchar(60)&lt;br&gt;funciona_feriado : boolean&lt;br&gt;ativado : boolean&lt;br&gt;&lt;/font&gt;" style="text;html=1;align=left;verticalAlign=middle;spacingLeft=4;spacingRight=4;overflow=hidden;rotatable=0;points=[[0,0.5],[1,0.5]];portConstraint=eastwest;fillColor=#647687;strokeColor=#314354;strokeWidth=2;fontColor=#FFE6CC;" parent="200" vertex="1">
                    <mxGeometry y="29" width="180" height="91" as="geometry"/>
                </mxCell>
            </root>
        </mxGraphModel>
    </diagram>
    <diagram id="Xw3u9gaSOjEULNr6fFVP" name="Página-2">
        <mxGraphModel dx="1054" dy="513" grid="1" gridSize="10" guides="1" tooltips="1" connect="1" arrows="1" fold="1" page="1" pageScale="1" pageWidth="827" pageHeight="1169" math="0" shadow="0">
            <root>
                <mxCell id="pzHTydbZ0sHb4ymNaH-f-0"/>
                <mxCell id="pzHTydbZ0sHb4ymNaH-f-1" parent="pzHTydbZ0sHb4ymNaH-f-0"/>
            </root>
        </mxGraphModel>
    </diagram>
</mxfile>